<svg xmlns="http://www.w3.org/2000/svg" width="40" height="40" viewBox="0 0 40 40">
  <g id="Group_9170" data-name="Group 9170" transform="translate(-242 -804)">
    <circle id="Ellipse_752" data-name="Ellipse 752" cx="20" cy="20" r="20" transform="translate(242 804)"/>
    <g id="_1532495" data-name="1532495" transform="translate(203.978 810)">
      <path id="Path_3657" data-name="Path 3657" d="M53.732,139.778c-4.22-.024-7.71-8.638-7.71-13.025,0-7.166,5.376-8.735,7.447-8.735a8.569,8.569,0,0,1,2.81.691,6.281,6.281,0,0,0,1.6.46,4.993,4.993,0,0,0,1.151-.373,9.225,9.225,0,0,1,3.469-.839h.008a7.111,7.111,0,0,1,5.951,3.005l.434.652-.625.471a5.256,5.256,0,0,0-2.52,4.334,4.892,4.892,0,0,0,2.73,4.522c.391.235.8.478.8,1.008,0,.346-2.764,7.784-6.779,7.784a5.452,5.452,0,0,1-2.289-.556,4.642,4.642,0,0,0-2.038-.491,5.241,5.241,0,0,0-1.613.436,7.9,7.9,0,0,1-2.8.653Z" transform="translate(0 -111.426)" fill="#fff"/>
      <path id="Path_3658" data-name="Path 3658" d="M260.481,0c.1,3.77-2.591,6.385-5.284,6.221C254.753,3.213,257.889,0,260.481,0Z" transform="translate(-197.552)" fill="#fff"/>
    </g>
  </g>
</svg>
