<svg xmlns="http://www.w3.org/2000/svg" width="40" height="40" viewBox="0 0 40 40">
  <g id="Group_9171" data-name="Group 9171" transform="translate(-182 -804)">
    <g id="Ellipse_751" data-name="Ellipse 751" transform="translate(182 804)" fill="#fff" stroke="#e9edf2" stroke-width="0.5">
      <circle cx="20" cy="20" r="20" stroke="none"/>
      <circle cx="20" cy="20" r="19.75" fill="none"/>
    </g>
    <g id="_281764" data-name="281764" transform="translate(189 811)">
      <path id="Path_3653" data-name="Path 3653" d="M5.942,147.23l-.933,3.484-3.411.072a13.429,13.429,0,0,1-.1-12.518h0l3.037.557,1.33,3.019a8,8,0,0,0,.075,5.387Z" transform="translate(0 -131.027)" fill="#fbbb00"/>
      <path id="Path_3654" data-name="Path 3654" d="M274.5,208.176a13.4,13.4,0,0,1-4.779,12.959h0l-3.825-.2-.541-3.379a7.989,7.989,0,0,0,3.438-4.08h-7.168v-5.3H274.5Z" transform="translate(-247.928 -197.275)" fill="#518ef8"/>
      <path id="Path_3655" data-name="Path 3655" d="M50.709,317.066h0a13.41,13.41,0,0,1-20.2-4.1l4.344-3.556a7.973,7.973,0,0,0,11.489,4.082Z" transform="translate(-28.911 -293.206)" fill="#28b446"/>
      <path id="Path_3656" data-name="Path 3656" d="M49.088,3.086,44.745,6.642a7.972,7.972,0,0,0-11.753,4.174L28.625,7.241h0A13.409,13.409,0,0,1,49.088,3.086Z" transform="translate(-27.125)" fill="#f14336"/>
    </g>
  </g>
</svg>
