<svg xmlns="http://www.w3.org/2000/svg" width="40" height="40" viewBox="0 0 40 40">
  <g id="facebook-logo_logotyp.us" data-name="facebook-logo@logotyp.us" transform="translate(-150 -70)">
    <path id="Path_3667" data-name="Path 3667" d="M190,90a20,20,0,1,0-23.125,19.758V95.783H161.8V90h5.08V85.593c0-5.012,2.987-7.782,7.554-7.782a30.747,30.747,0,0,1,4.478.391v4.922h-2.523c-2.483,0-3.26,1.541-3.26,3.125V90h5.546l-.886,5.783h-4.66v13.976A20,20,0,0,0,190,90Z" fill="#1977f3" fill-rule="evenodd"/>
    <path id="Path_3668" data-name="Path 3668" d="M242.691,138.758l.886-5.783h-5.546v-3.752c0-1.581.773-3.125,3.26-3.125h2.523v-4.922a30.744,30.744,0,0,0-4.478-.391c-4.568,0-7.554,2.768-7.554,7.782v4.407H226.7v5.783h5.079v13.976a20.106,20.106,0,0,0,3.125.242,20.45,20.45,0,0,0,3.125-.242V138.758h4.66Z" transform="translate(-64.906 -42.976)" fill="#fefefe" fill-rule="evenodd"/>
  </g>
</svg>
