<svg xmlns="http://www.w3.org/2000/svg" width="214.204" height="94.599" viewBox="0 0 214.204 94.599">
  <defs>
    <linearGradient id="linear-gradient" x1="0.5" x2="0.5" y2="1" gradientUnits="objectBoundingBox">
      <stop offset="0" stop-color="#ff9425"/>
      <stop offset="1" stop-color="#ff6720"/>
    </linearGradient>
  </defs>
  <g id="Group_8763" data-name="Group 8763" transform="translate(0 0)">
    <path id="Path_3406" data-name="Path 3406" d="M-3149.6-1911.323c.707.023,1-.239,1.048-.931a13.093,13.093,0,0,1,4.17-8.65,13.355,13.355,0,0,1,11.363-4.1,10.081,10.081,0,0,1,8.68,10.852c-.089.9-.175,1.791-.273,2.8,1.609,0,3.123.019,4.636-.026.173-.005.449-.35.485-.568a15.7,15.7,0,0,0-1.922-10.982,15.522,15.522,0,0,0-17.358-6.791,19.555,19.555,0,0,0-13.378,11.184,17.328,17.328,0,0,0-1.606,7.2C-3152.328-1911.337-3150.965-1911.369-3149.6-1911.323Z" transform="translate(3204.992 1930.244)" fill="url(#linear-gradient)"/>
    <path id="Path_3407" data-name="Path 3407" d="M-3429.452-1643.026a5.539,5.539,0,0,0,2.113-.456,3.078,3.078,0,0,0,.771-5.314,4.647,4.647,0,0,0-2.642-.956c-4.123-.1-8.249-.05-12.374-.041a4.5,4.5,0,0,0-1.129.139,3.526,3.526,0,0,0-2.646,2.44,2.929,2.929,0,0,0,.988,3.163,3.975,3.975,0,0,0,2.807,1.047q3.029-.005,6.057,0C-3433.489-1643.005-3431.469-1642.967-3429.452-1643.026Z" transform="translate(3445.499 1699.06)" fill="url(#linear-gradient)"/>
    <path id="Path_3408" data-name="Path 3408" d="M-3356.45-1799.258c.931.057,1.872-.056,2.8.006a4.159,4.159,0,0,0,2.943-1.11,2.79,2.79,0,0,0,.9-3.025,3.394,3.394,0,0,0-2.7-2.462,14.989,14.989,0,0,0-2.261-.216l-.005.06c-.5,0-1-.026-1.492,0a3.666,3.666,0,0,0-3.625,2.975A3.509,3.509,0,0,0-3356.45-1799.258Z" transform="translate(3374.935 1827.872)" fill="url(#linear-gradient)"/>
    <path id="Path_3409" data-name="Path 3409" d="M-3300.583-1805.6a20.768,20.768,0,0,0-2.953-.017c-3.124-.038-6.247-.122-9.37-.125q-21.773-.023-43.546-.011c-1.931,0-3.863-.009-5.794,0a3.567,3.567,0,0,0-3.063,1.41c-1.66,2.4-.262,5.089,2.692,5.356a7.6,7.6,0,0,1,2.052.394,3.229,3.229,0,0,1,1.06,5.443,4.021,4.021,0,0,1-2.881,1.078c-3.453.006-6.906,0-10.36.011a7.205,7.205,0,0,0-1.481.14,3.261,3.261,0,0,0-2.575,4.423,3.7,3.7,0,0,0,3.6,2.21c4.536.021,9.073-.027,13.608.037a5.849,5.849,0,0,1,2.583.67,3.083,3.083,0,0,1,.849,4.8,4.04,4.04,0,0,1-3.263,1.418c-2.282.008-4.565,0-6.848.008a7.318,7.318,0,0,0-1.4.115,3.468,3.468,0,0,0-2.91,3.085,3.319,3.319,0,0,0,2.47,3.333,11.817,11.817,0,0,0,1.544.252,10.093,10.093,0,0,1,2.206.466,3.148,3.148,0,0,1,1.119,5.151,4.158,4.158,0,0,1-3.324,1.291q-6.014-.006-12.028.005a6.6,6.6,0,0,0-1.482.129,3.4,3.4,0,0,0-2.731,2.443,2.974,2.974,0,0,0,.968,3.178,4.312,4.312,0,0,0,2.985,1.048q13.213-.026,26.426-.006a9.543,9.543,0,0,1,1.829.16,3.547,3.547,0,0,1,2.793,3.022,3.245,3.245,0,0,1-1.916,3.179,6.431,6.431,0,0,1-2.446.527c-3.979.052-7.96.039-11.94.009a3.39,3.39,0,0,0-2.177.611,3.348,3.348,0,0,0-1.643,2.919,3.411,3.411,0,0,0,2.038,2.847c1.347.746,2.821.4,4.224.407,9.13.052,18.261.026,27.392.026v-.009h2.875l2.938-42.022h-19.536a1.426,1.426,0,0,1-1-.362,2.56,2.56,0,0,1-.646-1.115,7.765,7.765,0,0,1-.313-1.99,24.891,24.891,0,0,1,.058-2.985,26.952,26.952,0,0,1,.365-3.075,8.6,8.6,0,0,1,.593-2.02,2.82,2.82,0,0,1,.8-1.085,1.708,1.708,0,0,1,1.048-.331h49.517q.049-1.336.093-2.673A3.636,3.636,0,0,0-3300.583-1805.6Zm-49.036,34.157a3.475,3.475,0,0,1,3.21,3.359,3.688,3.688,0,0,1-3.44,3.377c-.868.085-1.751.014-2.627.014-.007.064-.014.129-.021.193a23.547,23.547,0,0,1-3.683-.551,3.3,3.3,0,0,1-2.3-3.271,3.4,3.4,0,0,1,2.924-3.071A34.486,34.486,0,0,1-3349.618-1771.44Z" transform="translate(3393.92 1827.615)" fill="url(#linear-gradient)"/>
    <path id="Path_3410" data-name="Path 3410" d="M-2998.816-1652.286h10.618a4.661,4.661,0,0,0,5-4.888c.1-3.158.261-6.314.412-9.47.26-5.434.539-10.868.8-16.3q.272-5.679.527-11.36h-14.421Z" transform="translate(3077.257 1735.74)" fill="url(#linear-gradient)"/>
    <path id="Path_3411" data-name="Path 3411" d="M-2866.085-1611.059a8.432,8.432,0,0,0-2.049-1.658,20.773,20.773,0,0,0-2.374-1.182q-1.207-.507-2.391-.936a16.078,16.078,0,0,1-2.1-.921,4.823,4.823,0,0,1-1.456-1.136,2.158,2.158,0,0,1-.472-1.6,2.862,2.862,0,0,1,.326-1.151,2.857,2.857,0,0,1,.8-.936,3.731,3.731,0,0,1,1.3-.614,6.939,6.939,0,0,1,1.826-.215,9.5,9.5,0,0,1,2.6.322,16.141,16.141,0,0,1,1.978.691,14.368,14.368,0,0,1,1.41.691,1.959,1.959,0,0,0,.837.322.879.879,0,0,0,.438-.107.815.815,0,0,0,.321-.415,3.7,3.7,0,0,0,.211-.829q.082-.522.141-1.351.049-.706.036-1.182c-.008-.317-.026-.583-.051-.8a1.847,1.847,0,0,0-.146-.552,1.391,1.391,0,0,0-.382-.46,5.025,5.025,0,0,0-.929-.553,9.828,9.828,0,0,0-1.616-.6,17.493,17.493,0,0,0-2.163-.46,16.388,16.388,0,0,0-2.489-.184,16.073,16.073,0,0,0-4.7.645,11.388,11.388,0,0,0-3.642,1.811,8.682,8.682,0,0,0-2.407,2.809,8.836,8.836,0,0,0-1.02,3.607,8.463,8.463,0,0,0,.336,3.316,6.866,6.866,0,0,0,1.339,2.364,8.332,8.332,0,0,0,2,1.658,20.291,20.291,0,0,0,2.342,1.2q1.206.523,2.359.952a16.177,16.177,0,0,1,2.054.921,4.577,4.577,0,0,1,1.424,1.151,2.211,2.211,0,0,1,.457,1.581,3.277,3.277,0,0,1-.405,1.412,2.879,2.879,0,0,1-.977,1.013,5.037,5.037,0,0,1-1.456.614,7.466,7.466,0,0,1-1.872.215,9.833,9.833,0,0,1-2.935-.4,16.165,16.165,0,0,1-2.227-.86q-.951-.461-1.583-.844a2.146,2.146,0,0,0-.971-.384.947.947,0,0,0-.468.108.888.888,0,0,0-.337.43,3.832,3.832,0,0,0-.244.86,13.209,13.209,0,0,0-.161,1.428,8.367,8.367,0,0,0,.042,2.042,1.974,1.974,0,0,0,.451,1.013,4.133,4.133,0,0,0,1.026.691,12.124,12.124,0,0,0,1.792.722,16.946,16.946,0,0,0,2.461.583,17.7,17.7,0,0,0,2.916.23,18.281,18.281,0,0,0,4.77-.6,12.072,12.072,0,0,0,3.9-1.8,9.064,9.064,0,0,0,2.68-2.978,9.68,9.68,0,0,0,1.163-4.114,7.98,7.98,0,0,0-.357-3.239A7.008,7.008,0,0,0-2866.085-1611.059Z" transform="translate(2983.922 1680.145)" fill="url(#linear-gradient)"/>
    <path id="Path_3412" data-name="Path 3412" d="M-2721.859-1682.378a7.41,7.41,0,0,0-2.925-2.517,10.409,10.409,0,0,0-4.648-.921,10.539,10.539,0,0,0-4.381.967,16.292,16.292,0,0,0-4.273,2.932l1.059-15.136a.848.848,0,0,0-.146-.553,1.253,1.253,0,0,0-.6-.414,5.063,5.063,0,0,0-1.164-.261,15.433,15.433,0,0,0-1.866-.092,15.748,15.748,0,0,0-1.879.092,5.515,5.515,0,0,0-1.2.261,1.511,1.511,0,0,0-.658.414.956.956,0,0,0-.223.553l-2.823,40.371a.789.789,0,0,0,.146.537,1.232,1.232,0,0,0,.6.384,5.252,5.252,0,0,0,1.166.23,18.51,18.51,0,0,0,1.868.077q1.135,0,1.878-.077a5.7,5.7,0,0,0,1.2-.23,1.484,1.484,0,0,0,.656-.384.891.891,0,0,0,.221-.537l1.273-18.206a17.892,17.892,0,0,1,3.35-3.131,5.454,5.454,0,0,1,3.053-1.074,4.264,4.264,0,0,1,2.01.445,3.4,3.4,0,0,1,1.34,1.259,5.766,5.766,0,0,1,.708,1.95,13.024,13.024,0,0,1,.073,3.131l-1.093,15.627a.79.79,0,0,0,.147.537,1.224,1.224,0,0,0,.587.384,5.013,5.013,0,0,0,1.166.23q.747.077,1.882.077,1.106,0,1.863-.077a5.443,5.443,0,0,0,1.2-.23,1.475,1.475,0,0,0,.641-.384.89.89,0,0,0,.222-.537l1.175-16.793a21.767,21.767,0,0,0-.161-5.173A9.58,9.58,0,0,0-2721.859-1682.378Z" transform="translate(2870.149 1739.092)" fill="url(#linear-gradient)"/>
    <path id="Path_3413" data-name="Path 3413" d="M-2546.071-1622.941a10.159,10.159,0,0,0-4.262-2.932,17.854,17.854,0,0,0-6.316-1,18.133,18.133,0,0,0-6.665,1.136,13.78,13.78,0,0,0-4.906,3.208,14.776,14.776,0,0,0-3.157,4.973,21.524,21.524,0,0,0-1.384,6.4,21.7,21.7,0,0,0,.409,6.447,11.121,11.121,0,0,0,2.308,4.759,10.386,10.386,0,0,0,4.276,2.947,17.484,17.484,0,0,0,6.284,1.013,18.252,18.252,0,0,0,6.68-1.136,13.66,13.66,0,0,0,4.923-3.224,14.765,14.765,0,0,0,3.142-4.974,21.7,21.7,0,0,0,1.367-6.386,21.82,21.82,0,0,0-.406-6.478A11.236,11.236,0,0,0-2546.071-1622.941Zm-5.274,11.544a17.6,17.6,0,0,1-.67,3.884,9.119,9.119,0,0,1-1.431,2.9,6.018,6.018,0,0,1-2.246,1.827,7.146,7.146,0,0,1-3.083.63,6.414,6.414,0,0,1-3.145-.691,4.688,4.688,0,0,1-1.905-1.95,8.662,8.662,0,0,1-.883-2.963,18.961,18.961,0,0,1-.077-3.73,17,17,0,0,1,.686-3.884,9.545,9.545,0,0,1,1.448-2.917,5.979,5.979,0,0,1,2.247-1.842,7.081,7.081,0,0,1,3.053-.629,6.277,6.277,0,0,1,3.159.706,4.928,4.928,0,0,1,1.9,1.965,8.243,8.243,0,0,1,.883,2.963A19.836,19.836,0,0,1-2551.346-1611.4Z" transform="translate(2726.08 1680.145)" fill="url(#linear-gradient)"/>
    <path id="Path_3414" data-name="Path 3414" d="M-2363.972-1617.66a13.626,13.626,0,0,0-1.615-4.789,8.756,8.756,0,0,0-3.227-3.239,9.909,9.909,0,0,0-5.044-1.182,11.856,11.856,0,0,0-2.738.307,11.453,11.453,0,0,0-2.537.936,15.67,15.67,0,0,0-2.458,1.566,31.069,31.069,0,0,0-2.5,2.165l.225-3.224a.9.9,0,0,0-.116-.537,1.021,1.021,0,0,0-.51-.384,3.98,3.98,0,0,0-1-.23,13.047,13.047,0,0,0-1.545-.077,13.645,13.645,0,0,0-1.586.077,4.354,4.354,0,0,0-1.029.23,1.234,1.234,0,0,0-.564.384,1,1,0,0,0-.191.537l-2.675,38.253a.85.85,0,0,0,.146.552,1.252,1.252,0,0,0,.6.415,5.061,5.061,0,0,0,1.164.261,15.422,15.422,0,0,0,1.866.092,15.764,15.764,0,0,0,1.879-.092,5.553,5.553,0,0,0,1.2-.261,1.525,1.525,0,0,0,.658-.415.962.962,0,0,0,.222-.552l.9-12.894a19.723,19.723,0,0,0,1.788,1.658,10.862,10.862,0,0,0,1.775,1.182,7.9,7.9,0,0,0,1.885.706,9.541,9.541,0,0,0,2.179.23,11.946,11.946,0,0,0,5.2-1.105,11.223,11.223,0,0,0,3.967-3.162,16.147,16.147,0,0,0,2.636-4.989,26.361,26.361,0,0,0,1.243-6.585A26.214,26.214,0,0,0-2363.972-1617.66Zm-7.876,6.386a15.921,15.921,0,0,1-.542,3.131,10.892,10.892,0,0,1-1.194,2.809,6.582,6.582,0,0,1-1.875,2.011,4.5,4.5,0,0,1-2.617.767,4.691,4.691,0,0,1-2.992-1.121,16.257,16.257,0,0,1-2.878-3.178l.631-9.026a21.368,21.368,0,0,1,1.894-2.057,11.891,11.891,0,0,1,1.706-1.351,6.385,6.385,0,0,1,1.588-.752,5.318,5.318,0,0,1,1.536-.23,4,4,0,0,1,2.511.752,4.95,4.95,0,0,1,1.517,2.011,9.446,9.446,0,0,1,.69,2.87A20.937,20.937,0,0,1-2371.848-1611.274Z" transform="translate(2577.896 1680.145)" fill="url(#linear-gradient)"/>
  </g>
</svg>
