<svg xmlns="http://www.w3.org/2000/svg" width="16" height="16" viewBox="0 0 16 16">
    <rect class="a" width="16" height="16" fill="none"/>
    <g transform="translate(1.349 1.527)">
        <path class="b" fill="#929daa"
              d="M11.126,54.409a1.025,1.025,0,0,0-1.549,0c-.362.359-.724.718-1.081,1.084a.213.213,0,0,1-.3.055c-.234-.128-.484-.231-.709-.371A11.237,11.237,0,0,1,4.78,52.711a6.418,6.418,0,0,1-.971-1.555.223.223,0,0,1,.055-.286c.362-.35.715-.709,1.071-1.068a1.029,1.029,0,0,0,0-1.586c-.283-.286-.566-.566-.849-.852s-.581-.587-.877-.877a1.031,1.031,0,0,0-1.549,0c-.365.359-.715.727-1.087,1.081a1.764,1.764,0,0,0-.554,1.19,5.042,5.042,0,0,0,.39,2.17,13.187,13.187,0,0,0,2.341,3.9,14.485,14.485,0,0,0,4.8,3.753,6.938,6.938,0,0,0,2.657.773,1.947,1.947,0,0,0,1.671-.636c.31-.347.66-.664.989-1a1.035,1.035,0,0,0,.006-1.577Q12,55.275,11.126,54.409Z"
              transform="translate(-0.006 -46.137)"/>
    </g>
</svg>