<svg xmlns="http://www.w3.org/2000/svg" width="24" height="24" viewBox="0 0 24 24">
    <rect class="a" width="24" height="24" fill="none"/>
    <path class="b" fill="#2c333a"
          d="M11124,22703a10,10,0,1,1,10-10A10.014,10.014,0,0,1,11124,22703Zm-.3-7.162a.982.982,0,0,0-.393.078,1.041,1.041,0,0,0-.313.211.953.953,0,0,0-.205.309,1.084,1.084,0,0,0-.074.387,1.027,1.027,0,0,0,.074.383.945.945,0,0,0,.205.313,1.049,1.049,0,0,0,.313.205.977.977,0,0,0,.393.074.958.958,0,0,0,.382-.074.981.981,0,0,0,.313-.205,1,1,0,0,0,.291-.7,1,1,0,0,0-.08-.387.919.919,0,0,0-.211-.309.99.99,0,0,0-.313-.211A.94.94,0,0,0,11123.706,22695.84Zm.131-6.342a1.513,1.513,0,0,1,.474.068,1.221,1.221,0,0,1,.376.205,1.1,1.1,0,0,1,.245.318,1.011,1.011,0,0,1,.085.422,1.223,1.223,0,0,1-.153.627,1.934,1.934,0,0,1-.382.473,3.86,3.86,0,0,1-.484.393,4.553,4.553,0,0,0-.473.371,1.565,1.565,0,0,0-.337.422.829.829,0,0,0-.085.535l.108,1.061h1.1l.147-.947a.639.639,0,0,1,.2-.375,4.185,4.185,0,0,1,.393-.342c.136-.1.294-.219.484-.365a2.739,2.739,0,0,0,.468-.461,2.549,2.549,0,0,0,.358-.627,2.28,2.28,0,0,0,.143-.855,2.136,2.136,0,0,0-.183-.916,1.942,1.942,0,0,0-.513-.7,2.5,2.5,0,0,0-.8-.445,3.279,3.279,0,0,0-1.025-.152,3.545,3.545,0,0,0-1.436.277,2.979,2.979,0,0,0-.57.309,3.629,3.629,0,0,0-.483.371l.421.666a.351.351,0,0,0,.337.193.388.388,0,0,0,.222-.08c.092-.057.2-.121.3-.182a2.348,2.348,0,0,1,.434-.182A2.144,2.144,0,0,1,11123.837,22689.5Z"
          transform="translate(-11111.996 -22681.004)"/>
</svg>