<svg xmlns="http://www.w3.org/2000/svg" width="15.596" height="15.598" viewBox="0 0 15.596 15.598">
<!--    <defs>-->
<!--        <style>.a{fill:#fff;}</style>-->
<!--    </defs>-->
    <path class="a"  fill="#fff"
        d="M15.478.681h0a1.363,1.363,0,0,0-1.927,0L8.079,6.152,2.609.682a1.363,1.363,0,0,0-1.928,0h0a1.364,1.364,0,0,0,0,1.928l5.47,5.47-5.47,5.47a1.364,1.364,0,0,0,0,1.928h0a1.363,1.363,0,0,0,1.928,0l5.47-5.47L13.55,15.48a1.362,1.362,0,0,0,1.928,0h0a1.362,1.362,0,0,0,0-1.928l-5.47-5.471,5.471-5.472A1.362,1.362,0,0,0,15.478.681Z"
        transform="translate(-0.282 -0.282)" />
</svg>