<svg xmlns="http://www.w3.org/2000/svg" width="19.783" height="18.504" viewBox="0 0 19.783 18.504">
<!--    <defs>-->
<!--        <style>.a{fill:#fff;}</style>-->
<!--    </defs>-->
    <path class="a" fill="#fff"
        d="M17.361,58.5H2.422A2.425,2.425,0,0,0,0,60.918V71.6a2.425,2.425,0,0,0,2.422,2.422H4.6l.046,2.187a.808.808,0,0,0,1.293.628l3.734-2.815h7.69A2.425,2.425,0,0,0,19.783,71.6V60.918A2.425,2.425,0,0,0,17.361,58.5ZM12.667,69.135H7.116a.807.807,0,0,1,0-1.615h5.551a.807.807,0,1,1,0,1.615ZM14.131,65.6H5.652a.807.807,0,0,1,0-1.615h8.479a.807.807,0,1,1,0,1.615Z"
        transform="translate(0 -58.496)" />
</svg>