<svg xmlns="http://www.w3.org/2000/svg" width="287.439" height="65.254"
    viewBox="0 0 287.439 65.254">
    <!--    <defs>-->
    <!--        <style>.a{fill:#c43030;}.b{fill:#ad2525;}.c{fill:#e24747;}.d{fill:#fff;}</style>-->
    <!--    </defs>-->
    <g transform="translate(0 9.675)">
        <path class="a" fill="#c43030"
            d="M70.762,223.566A79.087,79.087,0,0,1,72.541,198.9c-6.154-4.508-13.878-7.828-22.584-10.4a265.844,265.844,0,0,1,45.576-20.513l11.209,26.929,3.636,8.74A207.8,207.8,0,0,0,70.762,223.566Z"
            transform="translate(-49.957 -167.987)" />
        <path class="b" fill="#ad2525" d="M128.665,213.91l-12.4-2.528,8.759-6.212Z"
            transform="translate(-68.243 -178.241)" />
    </g>
    <g transform="translate(227.018 8.488)">
        <path class="a" fill="#c43030"
            d="M403.031,221.928a104.03,104.03,0,0,0-1.779-24.664c6.6-5.086,14.315-8.23,22.584-10.4-15.455-8.771-30.7-15.973-45.576-20.513l-11.21,26.929-3.636,8.74A168.17,168.17,0,0,1,403.031,221.928Z"
            transform="translate(-363.415 -166.349)" />
        <path class="b" fill="#ad2525" d="M363.415,212.272l12.4-2.528-8.759-6.212Z"
            transform="translate(-363.415 -176.603)" />
    </g>
    <path class="c" fill="#e24747"
        d="M93.04,156.008l16.824,34.816s85.594-46.662,191.387-1.186l15.916-35.522S205.1,100.013,93.04,156.008Z"
        transform="translate(-61.838 -130.621)" />
    <g transform="translate(51.096 9.298)">
        <path class="d" fill="#fff"
            d="M140.991,177.505l-4.418,1.649-5-3.669-1.435,6.071-4.217,1.574,2.465-9.414-7.88-5.425,4.406-1.645,4.8,3.459,1.446-5.79,4.229-1.579-2.481,9.116Z"
            transform="translate(-120.508 -148.775)" />
        <path class="d" fill="#fff"
            d="M149.17,161.952l-3.864,1.183-.849-2.769,3.865-1.184ZM153.056,175l-3.662,1.122L145.9,164.729l3.662-1.122Z"
            transform="translate(-127.112 -147.795)" />
        <path class="d" fill="#fff"
            d="M171.316,171.405l-3.715.931-1.437-5.732a13.8,13.8,0,0,0-.422-1.377,3.028,3.028,0,0,0-.5-.962,1.27,1.27,0,0,0-.742-.4,2.885,2.885,0,0,0-1.149.1,3.472,3.472,0,0,0-.983.421,5.719,5.719,0,0,0-1,.807l2.052,8.192-3.715.931-2.9-11.557,3.715-.931.319,1.276a9.769,9.769,0,0,1,1.6-1.658,4.988,4.988,0,0,1,1.917-.918,4,4,0,0,1,3.2.358,4.666,4.666,0,0,1,1.871,3Z"
            transform="translate(-130.519 -148.119)" />
        <path class="d" fill="#fff"
            d="M196.674,167.172a10.27,10.27,0,0,1-2.872.069,6.259,6.259,0,0,1-2.393-.789,5.2,5.2,0,0,1-1.745-1.706,7.632,7.632,0,0,1-.824-5.572,5.426,5.426,0,0,1,1.229-2.22,6.334,6.334,0,0,1,2.033-1.43,9.764,9.764,0,0,1,2.536-.747,9.006,9.006,0,0,1,2.263-.082,10.692,10.692,0,0,1,2,.388l.5,3.219-.534.083q-.249-.154-.6-.359a4.8,4.8,0,0,0-.835-.375,5.042,5.042,0,0,0-1-.237,4.258,4.258,0,0,0-1.217.033,2.9,2.9,0,0,0-2.171,1.317,3.952,3.952,0,0,0-.408,2.731,3.662,3.662,0,0,0,1.23,2.451,3.128,3.128,0,0,0,2.5.515,4.718,4.718,0,0,0,1.257-.361,4.164,4.164,0,0,0,.889-.529,4.483,4.483,0,0,0,.56-.537q.237-.273.433-.528l.534-.083.5,3.219a10.417,10.417,0,0,1-1.758.953A8.8,8.8,0,0,1,196.674,167.172Z"
            transform="translate(-139.292 -146.547)" />
        <path class="d" fill="#fff"
            d="M219.672,162.716l-3.812.363-.56-5.883a13.667,13.667,0,0,0-.21-1.424,3.029,3.029,0,0,0-.353-1.026,1.27,1.27,0,0,0-.672-.512,2.893,2.893,0,0,0-1.153-.072,3.457,3.457,0,0,0-1.034.269,5.651,5.651,0,0,0-1.106.648l.8,8.407-3.812.362L206.2,147.416l3.813-.363.558,5.883a9.752,9.752,0,0,1,1.83-1.4,5,5,0,0,1,2.033-.619,3.993,3.993,0,0,1,3.107.834,4.668,4.668,0,0,1,1.4,3.245Z"
            transform="translate(-144.138 -144.45)" />
        <path class="d" fill="#fff"
            d="M241.012,161.154l-3.828.12-.041-1.315a11.283,11.283,0,0,1-1.9,1.285,4.835,4.835,0,0,1-2.084.485,3.956,3.956,0,0,1-3.069-1.041,4.735,4.735,0,0,1-1.169-3.318l-.24-7.752,3.828-.119.184,5.906q.028.9.105,1.5a2.6,2.6,0,0,0,.3.983,1.21,1.21,0,0,0,.627.553,2.886,2.886,0,0,0,1.146.146,3.792,3.792,0,0,0,1.076-.214,4.639,4.639,0,0,0,1.128-.566l-.262-8.44,3.828-.119Zm-3.044-17.695.006.212-3.61,4.072-2.609.081,2.49-4.249Z"
            transform="translate(-150.338 -143.459)" />
        <path class="d" fill="#fff"
            d="M256.323,163.821a10.293,10.293,0,0,1-2.838-.448,6.265,6.265,0,0,1-2.213-1.205,5.187,5.187,0,0,1-1.412-1.991,7.642,7.642,0,0,1,.188-5.63,5.421,5.421,0,0,1,1.607-1.963,6.334,6.334,0,0,1,2.257-1.044,9.741,9.741,0,0,1,2.628-.28,9,9,0,0,1,2.242.325,10.6,10.6,0,0,1,1.9.741l-.087,3.255-.54-.014q-.217-.2-.523-.459a4.788,4.788,0,0,0-.755-.519,5.075,5.075,0,0,0-.942-.413,4.278,4.278,0,0,0-1.2-.186,2.9,2.9,0,0,0-2.371.907,3.955,3.955,0,0,0-.891,2.614,3.661,3.661,0,0,0,.772,2.631,3.13,3.13,0,0,0,2.364.955,4.73,4.73,0,0,0,1.3-.13,4.117,4.117,0,0,0,.968-.361,4.522,4.522,0,0,0,.647-.428q.282-.226.521-.443l.54.014-.087,3.255a10.423,10.423,0,0,1-1.9.624A8.833,8.833,0,0,1,256.323,163.821Z"
            transform="translate(-156.055 -145.61)" />
        <path class="d" fill="#fff"
            d="M290.393,157.694l-1.089,8.374-3.8-.493.766-5.9q.113-.863.148-1.473a2.636,2.636,0,0,0-.1-1.014,1.167,1.167,0,0,0-.5-.626,2.7,2.7,0,0,0-1.056-.314,2.741,2.741,0,0,0-1.113.085,8.067,8.067,0,0,0-1.008.356l-1.089,8.374-3.8-.494,1.535-11.814,3.8.494-.17,1.3a10.454,10.454,0,0,1,2.026-.956,4.518,4.518,0,0,1,2.031-.175,4.044,4.044,0,0,1,1.992.789,3.587,3.587,0,0,1,1.2,1.712,11.837,11.837,0,0,1,2.4-1.217,4.635,4.635,0,0,1,2.173-.274,3.664,3.664,0,0,1,2.755,1.525,4.947,4.947,0,0,1,.564,3.432l-1,7.691-3.8-.494.767-5.9q.114-.873.155-1.477a2.578,2.578,0,0,0-.1-1.008,1.116,1.116,0,0,0-.5-.626,2.787,2.787,0,0,0-1.072-.316,2.724,2.724,0,0,0-.947.043A7.109,7.109,0,0,0,290.393,157.694Z"
            transform="translate(-163.87 -146.022)" />
        <path class="d" fill="#fff"
            d="M320.627,169.45l-3.749-.787.27-1.287a11.325,11.325,0,0,1-2.15.8,4.854,4.854,0,0,1-2.139-.021,3.96,3.96,0,0,1-2.738-1.735,4.735,4.735,0,0,1-.353-3.5l1.593-7.59,3.748.787L313.9,161.9q-.186.883-.251,1.481a2.614,2.614,0,0,0,.061,1.027,1.223,1.223,0,0,0,.479.686,2.883,2.883,0,0,0,1.079.411,3.74,3.74,0,0,0,1.1.046,4.654,4.654,0,0,0,1.23-.284L319.326,157l3.07.644a1.574,1.574,0,0,0,1.287-.151,1.611,1.611,0,0,0,.587-1.012,3.238,3.238,0,0,0,.056-.885,5.036,5.036,0,0,0-.093-.744l.041-.2,2.409.506a6.221,6.221,0,0,1-.032,1.028,9.655,9.655,0,0,1-.139,1.028,2.93,2.93,0,0,1-1.419,2.19,4.058,4.058,0,0,1-2.431.351Zm-.485-14.01-2.554-.537-2.842-4.639.043-.208,3.645.765Z"
            transform="translate(-172.654 -145.278)" />
        <path class="d" fill="#fff"
            d="M341.764,176.929l-3.693-1.015,1.566-5.7a14,14,0,0,0,.31-1.406,3.046,3.046,0,0,0,.034-1.086,1.274,1.274,0,0,0-.446-.717,2.909,2.909,0,0,0-1.052-.476,3.477,3.477,0,0,0-1.062-.117,5.7,5.7,0,0,0-1.264.214l-2.239,8.143-3.693-1.015,3.158-11.488,3.692,1.015-.348,1.268a9.728,9.728,0,0,1,2.209-.658,5,5,0,0,1,2.119.143,4,4,0,0,1,2.609,1.884,4.669,4.669,0,0,1,.156,3.531Z"
            transform="translate(-178.34 -148.646)" />
        <path class="d" fill="#fff"
            d="M361.588,182.3a7.354,7.354,0,0,1-1.356,2.52,4.211,4.211,0,0,1-1.841,1.27,5.463,5.463,0,0,1-2.269.235,11.8,11.8,0,0,1-2.691-.6,20.045,20.045,0,0,1-2.269-.924,18.9,18.9,0,0,1-1.859-1.01l.956-2.824.441.149a11.865,11.865,0,0,0,1.454,1.025,8.264,8.264,0,0,0,1.632.793,6.192,6.192,0,0,0,1.694.366,2.28,2.28,0,0,0,1.136-.2,2,2,0,0,0,.731-.671,4.8,4.8,0,0,0,.549-1.159l.071-.211a5.666,5.666,0,0,1-1.731.355,5.056,5.056,0,0,1-1.871-.286,4.921,4.921,0,0,1-3.171-2.664,6.666,6.666,0,0,1,.185-4.776,7.052,7.052,0,0,1,1.207-2.279,5.633,5.633,0,0,1,1.7-1.395,4.805,4.805,0,0,1,2-.543,5.521,5.521,0,0,1,2.115.279,6.286,6.286,0,0,1,1.588.778,5.71,5.71,0,0,1,1.158,1.058l.3-.458,3.517,1.19Zm-2.862-3.489,1.731-5.115a3.651,3.651,0,0,0-.692-.464,5.342,5.342,0,0,0-.787-.351,2.829,2.829,0,0,0-2.413.1,3.563,3.563,0,0,0-1.485,2.045,3.493,3.493,0,0,0-.163,2.477,2.5,2.5,0,0,0,1.582,1.252,3.6,3.6,0,0,0,1.121.188A4.244,4.244,0,0,0,358.726,178.815Z"
            transform="translate(-183.601 -150.628)" />
    </g>
</svg>