<svg xmlns="http://www.w3.org/2000/svg" width="160" height="160"
     viewBox="0 0 160 160">

    <g transform="translate(-106 -544)">
        <circle class="b" cx="80" cy="80" r="80" transform="translate(106 544)" fill="#f8f9fb"/>
        <g class="c" transform="translate(106 544)" clip-path="url(#a)">
            <clipPath id="a">
                <circle class="a" cx="80" cy="80" r="80" stroke="#707070"/>
            </clipPath>
            <g transform="translate(-663.427 -23.625)">
                <g transform="translate(748.142 133.791)">
                    <path class="d" fill="#d5d9df"
                          d="M793.163,156.3l-5.547-2.3-14.347,5.729-5.26,16.528,5.643,1.646,3.444,1.881L766,210.958l5.643,2.3L787.52,180.8l-2.009-10.931,3.443-11.26Z"
                          transform="translate(-766 -154)"/>
                    <path class="e" fill="#f3f3f3"
                          d="M780.22,162.436l14.251-5.6-5.26,15.013,10.234,2.107L772.951,213.8l10.808-30.553-8.7-5.07Z"
                          transform="translate(-767.308 -154.534)"/>
                    <path class="f" d="M768.474,181.416l8.567,4.989,5.876,1.464-8.7-5.07Z"
                          transform="translate(-766.466 -159.159)" fill="#c0c3c9"/>
                </g>
                <g transform="translate(694.746 60.691)">
                    <path class="d" fill="#d5d9df"
                          d="M818.137,94.374a28.866,28.866,0,0,0,9.144,3.729,22.406,22.406,0,0,0,3.734.627,31.945,31.945,0,0,0,.653-4.973c5.688.029,4.55-7.882,4.55-7.882L821.913,78.1a9.211,9.211,0,0,0-1.184-.683l-.042-.024v0c-3.084-1.482-7.087-1.3-11.513.821C806.864,82.7,814.283,91.688,818.137,94.374Z"
                          transform="translate(-720.647 -66.301)"/>
                    <path class="d" fill="#d5d9df"
                          d="M722.345,171.1l48.079-27.758c-4.126-3.915-8.1-7.988-12.294-11.831-5.42-4.963-11.1-9.687-16.171-15.021-3.5-3.685-11.331-9.984-14.693-13.791-5.122,6.029-8.62,14.2-8.62,21.289a17.378,17.378,0,0,0,.474,4.173c-.5.238-1,.5-1.509.792-9.6,5.543-17.383,18.967-17.383,29.984,0,5.431,1.893,9.259,4.961,11.085h-.007l.114.066.042.025,14.9,8.137,2.329-6.588-1.393.067C721.559,171.53,721.949,171.325,722.345,171.1Z"
                          transform="translate(-700.227 -71.244)"/>
                    <path class="g" fill="#52a5ea"
                          d="M787.619,150.159l.693-.4q-3.242-2.582-6.464-5.188C783.763,146.442,785.675,148.317,787.619,150.159Z"
                          transform="translate(-715.587 -79.125)"/>
                    <path class="d" fill="#d5d9df"
                          d="M811.878,97.408c-3.595-1.079-7.631-2.413-10.375-5.086a14.647,14.647,0,0,1-3.961-12.808q-.476.3-.946.619a22.563,22.563,0,0,0-.748-4.179,11.541,11.541,0,0,0,4.126-2.4l-14.7-8.029c-.054-.032-.107-.063-.161-.093l-.051-.029,0,0c-4.187-2.323-9.937-1.932-16.284,1.732-7.207,4.161-13.647,11.65-17.9,20.024-2.678-.76-6.006-.205-9.612,1.877a27.6,27.6,0,0,0-6.065,4.868c3.708,4.186,11.827,10.91,15.762,14.894.765.774,1.542,1.535,2.326,2.29a1.036,1.036,0,0,1,.608.235c9.2,7.347,18.284,14.859,27.5,22.188l15.31-8.839v-.088c.554-.266,1.114-.555,1.681-.882,8.436-4.871,15.618-15.174,18.325-25.346A24.849,24.849,0,0,1,811.878,97.408Z"
                          transform="translate(-706.808 -63.954)"/>
                    <path class="d" fill="#d5d9df"
                          d="M738.949,94.342c-8.856,5.113-16.034,17.495-16.034,27.656a17.381,17.381,0,0,0,.474,4.173l14.684,8.022c37.821,5.573,25.17-33.708,25.17-33.708l-14.682-8.019C745.883,91.7,742.555,92.259,738.949,94.342Z"
                          transform="translate(-704.497 -69.258)"/>
                    <path class="h" fill="#dcffff"
                          d="M824.636,97.732c0,12.346-8.719,27.387-19.477,33.6-.387.222-.767.429-1.147.619a6.207,6.207,0,0,0-.536.351l-25.027,14.45L767.8,152.9l-32.1,18.535a20.22,20.22,0,0,1-2.93,1.407c-8.2,3.14-14.454-1.448-14.454-11.318,0-11.017,7.786-24.44,17.384-29.986.512-.293,1.011-.554,1.511-.788a17.331,17.331,0,0,1-.475-4.176c0-9.325,6.049-20.524,13.889-26.252a24.188,24.188,0,0,1,2.146-1.4c3.606-2.08,6.932-2.637,9.61-1.878,4.254-8.372,10.7-15.862,17.9-20.025a24.433,24.433,0,0,1,6.887-2.777,13.318,13.318,0,0,1,8.938.8c4.031,1.985,6.717,6.375,7.266,12.717.59-.4,1.184-.779,1.791-1.13,3.92-2.266,7.573-3.041,10.63-2.513C821.116,85.022,824.636,89.887,824.636,97.732Z"
                          transform="translate(-703.63 -65.813)"/>
                    <path class="e" fill="#f3f3f3"
                          d="M822.831,98.271c0,5.568-1.917,11.93-5.386,17.929a38.092,38.092,0,0,1-12.111,13.155c-.273.17-.533.329-.805.487q-.544.307-1.021.545a3.775,3.775,0,0,1-.386.192l-.9.76-.55.148-21.9,12.645-10.649,6.146-34.056,19.665c-.352.2-.7.4-1.043.567a16.567,16.567,0,0,1-1.554.68,11.4,11.4,0,0,1-4.037.828c-4.524,0-7.224-3.72-7.224-9.957a24.907,24.907,0,0,1,.578-5.217,34.772,34.772,0,0,1,3.311-9.027c.273-.545.579-1.089.885-1.622a33.133,33.133,0,0,1,11.431-12.089c.442-.249.884-.477,1.338-.692l1.735-.817-.453-1.871a14.9,14.9,0,0,1-.408-3.606,30.406,30.406,0,0,1,4.6-14.947,33.6,33.6,0,0,1,6-7.5,24.338,24.338,0,0,1,2.325-1.917,21.784,21.784,0,0,1,1.939-1.27A12.393,12.393,0,0,1,760.5,99.61a6.9,6.9,0,0,1,1.781.226l1.859.533.874-1.724c4.218-8.312,10.41-15.264,16.977-19.052a23.247,23.247,0,0,1,5.08-2.223c.386-.114.76-.215,1.134-.3a13.744,13.744,0,0,1,3.028-.352,9.8,9.8,0,0,1,4.366.964c.159.08.317.158.464.249a10.387,10.387,0,0,1,4.446,5.6,18.973,18.973,0,0,1,1.066,4.967l.34,3.98,1.463-1,1.849-1.248c.589-.4,1.134-.737,1.644-1.043a17.678,17.678,0,0,1,1.837-.93,13.93,13.93,0,0,1,5.727-1.417,7.293,7.293,0,0,1,1.326.1.878.878,0,0,1,.171.023C820.325,87.725,822.831,91.842,822.831,98.271Z"
                          transform="translate(-704.176 -66.357)"/>
                    <g transform="translate(14.682 65.128)">
                        <path class="h" fill="#dcffff"
                              d="M735.7,147.386c.512-.293,1.011-.553,1.511-.788a16.188,16.188,0,0,1-.391-2.419c-.369.183-.741.377-1.12.594-9.6,5.546-17.384,18.969-17.384,29.986,0,.44.017.865.041,1.283C718.94,165.3,726.481,152.711,735.7,147.386Z"
                              transform="translate(-718.312 -144.179)"/>
                    </g>
                    <path class="i" fill="#e4e5e8"
                          d="M815.8,84.116c-3.066-.537-6.725.248-10.634,2.509-.612.345-1.206.728-1.8,1.13-.537-6.341-3.238-10.729-7.262-12.721a13.338,13.338,0,0,0-8.927-.805,24.441,24.441,0,0,0-6.9,2.779c-7.2,4.177-13.641,11.649-17.894,20.021-2.683-.747-6.016-.192-9.618,1.878a24.171,24.171,0,0,0-2.146,1.418c-7.836,5.728-13.891,16.917-13.891,26.248a17.514,17.514,0,0,0,.479,4.177c-.5.231-1,.5-1.513.786-9.6,5.537-17.378,18.967-17.378,29.984,0,9.867,6.246,14.465,14.446,11.323a18.637,18.637,0,0,0,2.931-1.418l4.521-2.605,2.28-1.3,4.56-2.644,10.633-6.131,6.84-3.967L767.8,152.9l7.339-4.234,2.28-1.322,1.034-.594,1.246-.709,2.28-1.322,21.5-12.415s1.3-.747,1.685-.977c10.748-6.207,19.466-21.248,19.466-33.586C824.631,89.882,821.125,85.016,815.8,84.116Zm-11.017,44.7c-.268.172-.517.326-.8.479-.364.21-.689.383-1.015.555-.135.077-.269.134-.383.192l-1.456.9L781.983,142l-2.28,1.322-.479.269-1.8,1.034-2.28,1.322-6.572,3.794-4.043,2.337-4.56,2.644-2.28,1.3-10.633,6.132-6.84,3.966-5.69,3.276c-.345.21-.709.4-1.054.575-.517.249-1.034.479-1.552.671a11.149,11.149,0,0,1-4.023.843c-4.541,0-7.223-3.736-7.223-9.963a24.949,24.949,0,0,1,.575-5.212,34.319,34.319,0,0,1,3.315-9.043c.268-.537.575-1.073.882-1.61a33.06,33.06,0,0,1,11.418-12.089c.46-.249.9-.479,1.342-.69l1.744-.824-.46-1.878a14.994,14.994,0,0,1-.4-3.6c0-4.77,1.763-10.174,4.6-14.944a33.908,33.908,0,0,1,6-7.491,24.351,24.351,0,0,1,2.337-1.916c.633-.459,1.284-.9,1.935-1.283a12.453,12.453,0,0,1,6.016-1.878,6.526,6.526,0,0,1,1.762.23l1.878.537.862-1.724c4.215-8.315,10.4-15.27,16.975-19.044a22.169,22.169,0,0,1,5.077-2.223c.4-.114.766-.23,1.15-.306a14.077,14.077,0,0,1,3.027-.345,9.733,9.733,0,0,1,4.349.958,3.651,3.651,0,0,1,.479.249A10.412,10.412,0,0,1,799.973,83a18.928,18.928,0,0,1,1.054,4.962l.344,3.985,1.476-1.016,1.839-1.245c.594-.383,1.131-.728,1.648-1.034.614-.345,1.227-.671,1.84-.939A14.056,14.056,0,0,1,813.9,86.3a7.659,7.659,0,0,1,1.322.115.544.544,0,0,1,.172.019c4.388.747,6.9,4.867,6.9,11.285,0,5.576-1.916,11.936-5.4,17.933A37.833,37.833,0,0,1,804.782,128.814Z"
                          transform="translate(-703.631 -65.812)"/>
                </g>
                <g transform="translate(745.033 88.859)">
                    <ellipse class="d" cx="10.207" cy="3.738" rx="10.207" ry="3.738"
                             transform="translate(0 33.476) rotate(-84.324)" fill="#d5d9df"/>
                    <ellipse class="d" cx="10.207" cy="3.738" rx="10.207" ry="3.738" fill="#d5d9df"
                             transform="translate(22.938 20.313) rotate(-84.324)"/>
                    <path class="d" fill="#d5d9df"
                          d="M770.686,154.882a1.888,1.888,0,0,1-1.758-2.573,40.919,40.919,0,0,1,3.561-6.779c3.159-4.838,6.628-7.725,10.313-8.582s7.379.359,10.936,3.622a1.887,1.887,0,0,1-2.552,2.782c-2.619-2.4-5.081-3.3-7.526-2.729-5.508,1.276-9.965,9.859-11.218,13.058A1.89,1.89,0,0,1,770.686,154.882Z"
                          transform="translate(-763.418 -105.808)"/>
                </g>
                <g transform="translate(452.869 1085.68)">
                    <g transform="translate(223.213 -1032.935)">
                        <path class="d" fill="#d5d9df"
                              d="M252.6-1030.408l4.114.27c.694.148.127.186.005.2l-1.258.152a3.418,3.418,0,0,1,2.1,2.579l.093.9c.2,1.958-1.42,3.764-4.005,4.472-6.684,1.832-12.262,5.994-16.641,12.6-4.959,7.486-7.127,16.221-6.666,26.1l1.581,1.88-4.411.4c-2.206.174-4.162-1.031-4.233-2.6-.484-10.716,1.646-20.432,6.583-29.016,5.272-9.166,12.284-15,20.92-17.659"
                              transform="translate(-223.213 1030.543)"/>
                        <path class="d" fill="#d5d9df"
                              d="M509.378-680.687a5.015,5.015,0,0,1,2.223-.805h.027a5.947,5.947,0,0,1,.685-.038s4.08,1.1,3.805,1.534a2.443,2.443,0,0,1,.55,1.287c.022.224.043.448.073.667.17,1.614-.893,3.141-2.755,4.072a10.2,10.2,0,0,0-4,3.653,14.01,14.01,0,0,0-2.268,7.395,1.774,1.774,0,0,1-.189.7l-2.974,1.684-.068.005c-1.918.155-3.578-.916-3.592-2.278C500.824-669.989,504.017-677.04,509.378-680.687Z"
                              transform="translate(-479.451 708.613)"/>
                        <path class="d" fill="#d5d9df"
                              d="M366.778-846.308c3.624-6.8,8.519-11.251,14.6-13.451a5.517,5.517,0,0,1,1.844-.318l3.028.882a2.7,2.7,0,0,1,1.227,1.877l.155,1.435c.2,1.887-1.319,3.592-3.712,4.431a19.448,19.448,0,0,0-9.834,8.013,27.854,27.854,0,0,0-4.447,16.24,11.177,11.177,0,0,1-.444,2.656s.092.009-.147,0c-.625.073-2.817.083-2.817.083l-.071.005c-1.884.149-3.559-.882-3.611-2.22A37.929,37.929,0,0,1,366.778-846.308Z"
                              transform="translate(-351.757 873.368)"/>
                        <g transform="translate(0.008 0)">
                            <path class="d" fill="#d5d9df"
                                  d="M229.954-1014.086c5.272-9.166,12.284-15,20.92-17.659a9.447,9.447,0,0,1,1.822-.281,16.274,16.274,0,0,1,1.795-.123,10.552,10.552,0,0,1,2.78.232s-.736,1.1-.382,1.489a5.524,5.524,0,0,1-3.7,2.784c-6.684,1.832-12.262,5.994-16.64,12.6-4.959,7.486-7.127,16.221-6.665,26.1l.5.6c-.01.5-.01,1-.005,1.5l-3.328.176a4.379,4.379,0,0,1-3.74-1.378A51.387,51.387,0,0,1,229.954-1014.086Z"
                                  transform="translate(-223.312 1032.161)"/>
                            <path class="d" fill="#d5d9df"
                                  d="M367.08-848.082c3.625-6.8,8.519-11.251,14.6-13.451a7.244,7.244,0,0,1,3.188-.466,13.214,13.214,0,0,1,2.514.152,3.085,3.085,0,0,1,0,.38l-.828.5a3.4,3.4,0,0,1,.629.585,5.54,5.54,0,0,1-3.512,2.969,19.447,19.447,0,0,0-9.834,8.013,27.853,27.853,0,0,0-4.447,16.24,2.067,2.067,0,0,1-.317,1.1l.9.917c-.008.169,0,.343-.007.513l-3.984.209-.071.006a3.833,3.833,0,0,1-3.068-1.034A37.022,37.022,0,0,1,367.08-848.082Z"
                                  transform="translate(-352.066 875.142)"/>
                            <path class="d" fill="#d5d9df"
                                  d="M511.034-682.761a5.014,5.014,0,0,1,2.223-.805h.027c.228-.027,1.561-.151,1.789-.151,0,0,3.063-.307,3.553.463.458.719-2.729,2.616-3.536,3.02a10.205,10.205,0,0,0-4,3.653,14.01,14.01,0,0,0-2.268,7.395,1.775,1.775,0,0,1-.189.7l1.02,1.039c-.028.147-.062.293-.086.442l-3.908.2-.067.005a3.885,3.885,0,0,1-2.9-.876C503.351-673.84,506.37-679.589,511.034-682.761Z"
                                  transform="translate(-481.114 710.687)"/>
                            <path class="d" fill="#d5d9df"
                                  d="M593.323-573.954a4.892,4.892,0,0,1,3.473-2.256.025.025,0,0,1,.012,0c.114-.016.231-.024.343-.03l.072,0a10.673,10.673,0,0,0-3.008,3.081,13.433,13.433,0,0,0-1.922,4.6,8.532,8.532,0,0,1-.113-1.039A7.357,7.357,0,0,1,593.323-573.954Z"
                                  transform="translate(-563.684 611.458)"/>
                        </g>
                        <g transform="translate(0.683 11.276)">
                            <path class="d" fill="#d5d9df"
                                  d="M507.733-571.289l4.4-.229-1.428-1.455a1.772,1.772,0,0,0,.189-.7,14.011,14.011,0,0,1,2.268-7.395,11.131,11.131,0,0,1,2.29-2.559,21.845,21.845,0,0,0,.857,2.1,12,12,0,0,0-1.22,1.556,14.01,14.01,0,0,0-2.268,7.395,16.773,16.773,0,0,1-.4,2.21,2.9,2.9,0,0,0-.523.034c2.222.2-2.235.143-2.235.143l-.068.005a3.676,3.676,0,0,1-3.166-1.172,4.418,4.418,0,0,0,1.239.079Z"
                                  transform="translate(-485.236 606.996)"/>
                            <path class="d" fill="#d5d9df"
                                  d="M369.731-710.81l4.47-.234-1.378-1.4a2.065,2.065,0,0,0,.317-1.1,27.854,27.854,0,0,1,4.447-16.24,21.111,21.111,0,0,1,5.725-5.942c.375.583.707,1.173,1.019,1.766a21.648,21.648,0,0,0-4.817,5.269,27.854,27.854,0,0,0-4.447,16.24,2.065,2.065,0,0,1-.317,1.1l-3.091,1.639-.071.005a3.739,3.739,0,0,1-3.191-1.175,4.487,4.487,0,0,0,1.264.083Z"
                                  transform="translate(-357.866 747.355)"/>
                            <path class="d" fill="#d5d9df"
                                  d="M238.291-849.091l-1.709-2.039c-.461-9.876,1.707-18.611,6.666-26.1a31.693,31.693,0,0,1,8.653-8.944c.143.7.328,1.4.534,2.1a32.56,32.56,0,0,0-7.259,7.938c-4.959,7.486-7.127,16.22-6.666,26.1l.036,2.188-2.866.091A4.469,4.469,0,0,1,232.062-849a5.22,5.22,0,0,0,1.69.145Z"
                                  transform="translate(-232.062 886.171)"/>
                        </g>
                        <g transform="translate(3.024 0.074)">
                            <path class="e" fill="#f3f3f3"
                                  d="M548.537-681.493c2.611-1.782,7.017-.591,7.29,1.976.021.224.043.448.074.667.17,1.614-.893,3.142-2.755,4.072a10.205,10.205,0,0,0-4,3.653,14.009,14.009,0,0,0-2.268,7.395c-.043,1.238-1.42,2.246-3.163,2.386l-.067.005c-1.918.155-3.578-.916-3.592-2.278C539.983-670.795,543.176-677.846,548.537-681.493Z"
                                  transform="translate(-518.609 709.287)"/>
                            <path class="e" fill="#f3f3f3"
                                  d="M405.937-847.119c3.624-6.8,8.519-11.251,14.6-13.451,2.658-.962,5.871.331,6.1,2.441l.155,1.435c.2,1.887-1.319,3.592-3.712,4.431a19.448,19.448,0,0,0-9.834,8.013,27.852,27.852,0,0,0-4.447,16.24c.025,1.4-1.435,2.588-3.408,2.744l-.071.005c-1.883.149-3.559-.882-3.61-2.22A37.928,37.928,0,0,1,405.937-847.119Z"
                                  transform="translate(-390.915 874.047)"/>
                            <path class="e" fill="#f3f3f3"
                                  d="M269.021-1013.257c5.272-9.166,12.283-15,20.92-17.659,3.055-.942,6.538.567,6.78,2.92q.046.45.092.9c.2,1.958-1.42,3.764-4.005,4.472-6.684,1.832-12.262,5.994-16.641,12.6-4.967,7.5-7.134,16.248-6.664,26.143.054,1.137-1.16,2.1-2.762,2.227l-.07.005c-2.206.174-4.162-1.031-4.233-2.6C261.954-994.958,264.084-1004.673,269.021-1013.257Z"
                                  transform="translate(-262.371 1031.2)"/>
                        </g>
                    </g>
                    <path class="j" d="M603-1033" transform="translate(-350.454)" fill="#c9cdd3"/>
                    <path class="j" d="M447-397" transform="translate(-206.503 -586.878)" fill="#c9cdd3"/>
                </g>
            </g>
        </g>
    </g>
</svg>