<svg xmlns="http://www.w3.org/2000/svg" width="170" height="129" viewBox="0 0 170 129">
    <!--    <defs>-->
    <!--        <style>-->
    <!--            .a{fill:#f8f9fb;}.b{fill:#fdfdfd;}.c{fill:#e7ecf0;}.d{fill:#72818d;}.e{fill:#bdc9d4;}.f{fill:none;stroke:#72818d;stroke-width:2px;}.g,.h{fill:#28a745;}.g{opacity:0.6;isolation:isolate;}.i{fill:#fff;}-->
    <!--        </style>-->
    <!--    </defs>-->
    <ellipse class="a" cx="85" cy="23.5" rx="85" ry="23.5" transform="translate(0 82)"
        fill="#f8f9fb" />
    <path class="b" fill="#fdfdfd"
        d="M149.73,57.77l-6.68,30.57-2.95,13.52a5.017,5.017,0,0,1-4.89,3.93H34.96a5.007,5.007,0,0,1-4.89-3.94L27.13,88.29,20.52,57.77a1.955,1.955,0,0,1,.14-1.27,1.99,1.99,0,0,1,1.82-1.16H60.15a2.9,2.9,0,0,1,.19.29l.54.96,3.82,6.82a.741.741,0,0,0,.65.39h39.6a.741.741,0,0,0,.65-.39l3.8-6.82.54-.96a2.9,2.9,0,0,1,.19-.29h37.64a2,2,0,0,1,1.72.97A2.025,2.025,0,0,1,149.73,57.77Z" />
    <path class="c" fill="#e7ecf0"
        d="M147.83,54.09,124.89,21.65a2.013,2.013,0,0,0-1.6-.8H46.92a2.013,2.013,0,0,0-1.6.8L22.01,54.13l-.87,1.21h1.34l35.03-.13a1.8,1.8,0,0,1,.69.13,1.971,1.971,0,0,1,1.05.9l.2.35,4.16,7.44a1.993,1.993,0,0,0,1.74,1.02h39.6a2.01,2.01,0,0,0,1.75-1.03l4.14-7.43.19-.35a2.007,2.007,0,0,1,1.05-.9,1.851,1.851,0,0,1,.7-.13l34.99.13h.94Z" />
    <path class="d" fill="#72818d"
        d="M150.35,55.11c-.14-.17-.526-.678-.576-.748L125.89,20.9a3.3,3.3,0,0,0-2.6-1.3H46.92a3.3,3.3,0,0,0-2.61,1.32S19.9,54.623,19.751,54.867A4.422,4.422,0,0,0,19.3,58.03l9.55,44.08a6.286,6.286,0,0,0,6.11,4.93H135.21a6.288,6.288,0,0,0,6.11-4.92l9.63-44.08A3.693,3.693,0,0,0,150.35,55.11ZM46.32,22.4a.753.753,0,0,1,.6-.3h76.37a.748.748,0,0,1,.58.27l22.42,31.71-33.51-.12a2.9,2.9,0,0,0-.89.13,3.187,3.187,0,0,0-1.76,1.25,2.9,2.9,0,0,0-.19.29l-.54.96-3.8,6.82a.741.741,0,0,1-.65.39H65.35a.741.741,0,0,1-.65-.39l-3.82-6.82-.54-.96a2.9,2.9,0,0,0-.19-.29,3.187,3.187,0,0,0-1.76-1.25,2.9,2.9,0,0,0-.89-.13l-33.92.12ZM148.51,57.5l-9.63,44.09a3.784,3.784,0,0,1-3.67,2.95H34.96a3.763,3.763,0,0,1-3.66-2.96L21.75,57.5a.719.719,0,0,1,.15-.63.739.739,0,0,1,.58-.28H57.92a.671.671,0,0,1,.24.26l4.36,7.78a3.243,3.243,0,0,0,2.83,1.67h39.6a3.259,3.259,0,0,0,2.84-1.67l4.33-7.78a.749.749,0,0,1,.24-.26h35.41a.763.763,0,0,1,.59.28A.787.787,0,0,1,148.51,57.5Z" />
    <circle class="e" cx="3.5" cy="3.5" r="3.5" transform="translate(54 74)" fill="#bdc9d4" />
    <path class="d" fill="#72818d"
        d="M57.5,81A3.5,3.5,0,1,1,61,77.5,3.5,3.5,0,0,1,57.5,81Zm0-5A1.5,1.5,0,1,0,59,77.5,1.5,1.5,0,0,0,57.5,76Z" />
    <circle class="e" cx="3.5" cy="3.5" r="3.5" transform="translate(109 74)" fill="#bdc9d4" />
    <circle class="f" cx="2.5" cy="2.5" r="2.5" transform="translate(110 75)" fill="none"
        stroke="#72818d" stroke-width="2px" />
    <path class="d" fill="#72818d"
        d="M85.205,93.067c-3.346,0-5.677-.014-5.711-.014a1,1,0,0,1,.006-2h.006c.053,0,5.288.033,11.35,0h.006a1,1,0,0,1,.006,2C88.832,93.063,86.89,93.067,85.205,93.067Z" />
    <ellipse class="g" cx="19" cy="18" rx="19" ry="18" transform="translate(65.999 0)" opacity="0.6"
        fill="#ff6720" />
    <ellipse class="h" cx="19" cy="18.5" rx="19" ry="18.5" transform="translate(65.999 2)"
        fill="#ff6720" />
    <path class="i" d="M81.865,11.175h6.412V19.7l5.322,0-8.713,10.2-8.6-10.2h5.573Z" fill="#fff" />
</svg>