<svg xmlns="http://www.w3.org/2000/svg" width="16" height="16" viewBox="0 0 16 16">
    <g class="a" transform="translate(-0.441 1.301)" fill="none">
        <path class="c" stroke="none" fill="none"
              d="M7.69.465,5.982,3.93l-3.823.557A.838.838,0,0,0,1.7,5.916l2.766,2.7-.654,3.807a.837.837,0,0,0,1.214.882l3.42-1.8,3.42,1.8a.838.838,0,0,0,1.214-.882l-.654-3.807,2.766-2.7a.838.838,0,0,0-.463-1.429L10.9,3.93,9.192.465a.838.838,0,0,0-1.5,0Z"/>
        <path class="d" fill="#2c333a"
              d="M 8.439401626586914 0.4991044998168945 C 8.376779556274414 0.4991111755371094 8.222208023071289 0.5174045562744141 8.138772964477539 0.6863937377929688 L 6.42999267578125 4.151063919067383 L 6.313742637634277 4.386763572692871 L 6.053692817687988 4.424674034118652 L 2.230162620544434 4.982104301452637 C 2.04381275177002 5.009134292602539 1.978352546691895 5.151654243469238 1.958863258361816 5.211673736572266 C 1.939332962036133 5.271803855895996 1.908542633056641 5.42591381072998 2.044162750244141 5.557963848114014 L 4.810142517089844 8.253284454345703 L 4.998513221740723 8.436843872070312 L 4.953972816467285 8.696054458618164 L 4.299833297729492 12.50318431854248 C 4.27789306640625 12.63142395019531 4.32623291015625 12.72111415863037 4.37064266204834 12.77377414703369 C 4.436713218688965 12.85210418701172 4.534683227539062 12.89887428283691 4.632722854614258 12.89887428283691 C 4.685142517089844 12.89887428283691 4.737042427062988 12.88544368743896 4.788553237915039 12.85814380645752 L 8.208732604980469 11.06039428710938 L 8.441372871398926 10.93811416625977 L 8.674013137817383 11.06039428710938 L 12.09427261352539 12.85818386077881 C 12.14431285858154 12.8845043182373 12.19637298583984 12.8978443145752 12.24901294708252 12.8978443145752 C 12.34787273406982 12.8978443145752 12.44641304016113 12.85098361968994 12.51261329650879 12.77249431610107 C 12.55675315856934 12.72016429901123 12.6047830581665 12.6309642791748 12.58297348022461 12.50352382659912 L 11.92877292633057 8.696054458618164 L 11.88423347473145 8.436843872070312 L 12.07260322570801 8.253284454345703 L 14.83872318267822 5.557834148406982 C 14.97420310974121 5.42591381072998 14.94341278076172 5.271814346313477 14.92388248443604 5.211684226989746 C 14.90438270568848 5.151654243469238 14.83893299102783 5.009134292602539 14.65222263336182 4.982053756713867 L 10.82905292510986 4.424674034118652 L 10.56900310516357 4.386763572692871 L 10.4527530670166 4.151063919067383 L 8.74443244934082 0.6873140335083008 C 8.660233497619629 0.5174951553344727 8.503087043762207 0.4991188049316406 8.439401626586914 0.4991044998168945 M 8.439526557922363 -0.0008916854858398438 C 8.739083290100098 -0.0008592605590820312 9.038850784301758 0.1555070877075195 9.192402839660645 0.4652338027954102 L 10.90118217468262 3.929903984069824 L 14.72435283660889 4.487283706665039 C 15.40995311737061 4.586724281311035 15.68472290039062 5.431954383850098 15.18753242492676 5.916064262390137 L 12.42155265808105 8.611383438110352 L 13.0757532119751 12.41885375976562 C 13.16889572143555 12.96321296691895 12.73494338989258 13.39784336090088 12.24900817871094 13.39784336090088 C 12.12057781219482 13.39784336090088 11.98846435546875 13.36746215820312 11.86155319213867 13.30072402954102 L 8.441372871398926 11.50297355651855 L 5.02119255065918 13.30072402954102 C 4.89391040802002 13.36820602416992 4.761502265930176 13.39887237548828 4.632718086242676 13.39887237548828 C 4.147237777709961 13.39887237548828 3.713921546936035 12.96279239654541 3.806992530822754 12.41885375976562 L 4.461193084716797 8.611383438110352 L 1.695213317871094 5.916064262390137 C 1.198022842407227 5.431954383850098 1.472783088684082 4.586724281311035 2.158392906188965 4.487283706665039 L 5.981562614440918 3.929903984069824 L 7.690342903137207 0.4652338027954102 C 7.844266891479492 0.1534786224365234 8.141792297363281 -0.0009250640869140625 8.439526557922363 -0.0008916854858398438 Z"/>
    </g>
    <rect class="b" width="16" height="16" fill="none"/>
</svg>