<svg id="icons_16_lock" data-name="icons / 16 / lock" xmlns="http://www.w3.org/2000/svg" width="22" height="22" viewBox="0 0 22 22">
  <rect id="Rectangle_1670" data-name="Rectangle 1670" width="22" height="22" fill="none"/>
  <path id="Icon_awesome-eye" data-name="Icon awesome-eye" d="M17.891,10.044A10.023,10.023,0,0,0,9,4.5,10.025,10.025,0,0,0,.109,10.044a1.011,1.011,0,0,0,0,.912A10.023,10.023,0,0,0,9,16.5a10.025,10.025,0,0,0,8.891-5.544A1.011,1.011,0,0,0,17.891,10.044ZM9,15a4.5,4.5,0,1,1,4.5-4.5A4.5,4.5,0,0,1,9,15ZM9,7.5a2.978,2.978,0,0,0-.791.118A1.5,1.5,0,0,1,6.118,9.709,2.993,2.993,0,1,0,9,7.5Z" transform="translate(2 0.5)" fill="#929daa"/>
  <rect id="Rectangle_2087" data-name="Rectangle 2087" width="2" height="21" rx="1" transform="translate(16.983 2.313) rotate(40)" fill="#929daa"/>
</svg>
