<svg xmlns="http://www.w3.org/2000/svg" width="16" height="16" viewBox="0 0 16 16">
    <rect class="a" width="16" height="16" fill="none"/>
    <g transform="translate(1.362 1.362)">
        <path class="b" fill="#2c333a"
              d="M11.724,0H1.675A1.677,1.677,0,0,0,0,1.675V11.724A1.677,1.677,0,0,0,1.675,13.4H6.7V8.793H5.025V6.7H6.7V5.025A2.512,2.512,0,0,1,9.212,2.512h1.675V4.606h-.837c-.462,0-.837-.044-.837.419V6.7h2.094l-.837,2.094H9.212V13.4h2.512A1.677,1.677,0,0,0,13.4,11.724V1.675A1.677,1.677,0,0,0,11.724,0Z"/>
    </g>
</svg>