<svg xmlns="http://www.w3.org/2000/svg" width="24" height="24" viewBox="0 0 24 24">
    <rect class="a" width="24" height="24" fill="none"/>
    <g transform="translate(-59.565 1.916)">
        <g transform="translate(64.001 0)">
            <g transform="translate(0 0)">
                <path class="b" fill="#fff"
                    d="M79,77.834,65.312,64.142a.42.42,0,0,0-.594,0l-.594.594a.42.42,0,0,0,0,.594l3.656,3.656-2.873,4.469a.42.42,0,0,0,.354.647h4.622v7.144a.421.421,0,0,0,.3.4.414.414,0,0,0,.118.016.42.42,0,0,0,.354-.192l3.76-5.85,3.4,3.4a.42.42,0,0,0,.594,0L79,78.428A.42.42,0,0,0,79,77.834Z"
                    transform="translate(-64.001 -61.497)" />
                <path class="b" fill="#fff"
                    d="M204.485,11.588a.42.42,0,0,0,.3.123l.045,0a.421.421,0,0,0,.309-.19l2.125-3.307a.421.421,0,0,0-.354-.647h-4.622V.421a.42.42,0,0,0-.774-.227L198.4,5.035a.421.421,0,0,0,.057.524Z"
                    transform="translate(-193.042 0)" />
            </g>
        </g>
    </g>
</svg>