<svg id="Icon_24_flash_on" data-name="Icon/24/ flash on" xmlns="http://www.w3.org/2000/svg" width="24" height="24" viewBox="0 0 24 24">
  <rect id="Rectangle_1670" data-name="Rectangle 1670" width="24" height="24" fill="none"/>
  <path id="Path_3661" data-name="Path 3661" d="M18.529,9.549a.416.416,0,0,0-.225-.066H13.682V2.337a.42.42,0,0,0-.774-.227L9.847,6.869h0L8.215,9.4h0L5.342,13.874a.42.42,0,0,0,.354.647h4.622v7.144a.42.42,0,0,0,.3.4.427.427,0,0,0,.472-.176l3.286-5.112h0l2.149-3.332.008-.008.276-.429,1.849-2.878A.421.421,0,0,0,18.529,9.549Z" transform="translate(0 0.001)" fill="#2c333a"/>
</svg>
