<svg id="Layer_1" enable-background="new 0 0 512 512" height="512" viewBox="0 0 512 512" width="512"
     xmlns="http://www.w3.org/2000/svg">
    <g>
        <g clip-rule="evenodd" fill-rule="evenodd">
            <path d="m125.86 116.165h260.281c5.357 0 9.723 4.366 9.723 9.695v260.28c0 5.357-4.365 9.723-9.723 9.723h-260.281c-5.329 0-9.695-4.365-9.695-9.723v-260.28c0-5.329 4.366-9.695 9.695-9.695z"
                  fill="#d3effb"/>
            <path d="m395.863 281.881v104.26c0 5.357-4.365 9.723-9.723 9.723h-205.117l77.018-94.225 70.839-86.685c4.337-5.188 8.447-5.244 12.273 0z"
                  fill="#b3e59f"/>
            <path d="m181.391 395.863h-55.531c-5.329 0-9.695-4.365-9.695-9.723v-25.824l59.104-72.341c4.081-4.989 8.192-4.961 12.274 0l41.018 50.174z"
                  fill="#95d6a4"/>
            <path d="m158.913 307.988 16.356-20.013c4.081-4.989 8.192-4.961 12.274 0l.255.312 40.763 49.862-22.507 27.524z"
                  fill="#78c2a4"/>
            <path d="m223.146 156.22c26.476 0 47.934 21.458 47.934 47.906 0 26.476-21.458 47.934-47.934 47.934s-47.934-21.459-47.934-47.934c0-26.448 21.458-47.906 47.934-47.906z"
                  fill="#ffe07d"/>
            <path d="m223.146 156.22c26.476 0 47.934 21.458 47.934 47.906 0 26.476-21.458 47.934-47.934 47.934-5.074 0-9.978-.794-14.57-2.24 19.361-6.179 33.393-24.293 33.393-45.694 0-21.374-14.032-39.487-33.393-45.667 4.592-1.445 9.496-2.239 14.57-2.239z"
                  fill="#ffd064"/>
            <path d="m13.323 217.846h64.659c3.203 0 5.839 2.636 5.839 5.839v64.659c0 3.203-2.636 5.811-5.839 5.811h-64.659c-3.203 0-5.811-2.608-5.811-5.811v-64.659c0-3.204 2.608-5.839 5.811-5.839zm210.362-210.333h64.659c3.203 0 5.81 2.607 5.81 5.811v64.659c0 3.203-2.607 5.84-5.81 5.84h-64.659c-3.203 0-5.839-2.637-5.839-5.84v-64.66c-.001-3.203 2.635-5.81 5.839-5.81zm-210.362 0h64.659c3.203 0 5.839 2.607 5.839 5.811v64.659c0 3.203-2.636 5.84-5.839 5.84h-64.659c-3.203 0-5.811-2.637-5.811-5.84v-64.66c0-3.203 2.608-5.81 5.811-5.81zm420.695 0h64.659c3.203 0 5.84 2.607 5.84 5.811v64.659c0 3.203-2.637 5.84-5.84 5.84h-64.659c-3.203 0-5.811-2.637-5.811-5.84v-64.66c0-3.203 2.608-5.81 5.811-5.81zm0 210.333h64.659c3.203 0 5.84 2.636 5.84 5.839v64.659c0 3.203-2.637 5.811-5.84 5.811h-64.659c-3.203 0-5.811-2.608-5.811-5.811v-64.659c0-3.204 2.608-5.839 5.811-5.839zm0 210.361h64.659c3.203 0 5.84 2.608 5.84 5.812v64.658c0 3.203-2.637 5.84-5.84 5.84h-64.659c-3.203 0-5.811-2.637-5.811-5.84v-64.658c0-3.204 2.608-5.812 5.811-5.812zm-210.333 0h64.659c3.203 0 5.81 2.608 5.81 5.812v64.658c0 3.203-2.607 5.84-5.81 5.84h-64.659c-3.203 0-5.839-2.637-5.839-5.84v-64.658c-.001-3.204 2.635-5.812 5.839-5.812zm-210.362 0h64.659c3.203 0 5.839 2.608 5.839 5.812v64.658c0 3.203-2.636 5.84-5.839 5.84h-64.659c-3.203 0-5.811-2.637-5.811-5.84v-64.658c0-3.204 2.608-5.812 5.811-5.812z"
                  fill="#90d8f9"/>
            <path d="m395.863 336.931v-55.05l-54.71-66.927c-3.826-5.244-7.936-5.188-12.273 0l-16.357 20.013z"
                  fill="#95d6a4"/>
        </g>
        <path d="m272.979 123.649c-4.139 0-7.483-3.345-7.483-7.484s3.345-7.512 7.483-7.512h122.884c4.139 0 7.483 3.373 7.483 7.512v279.698c0 4.139-3.345 7.483-7.483 7.483h-279.698c-4.139 0-7.512-3.345-7.512-7.483v-279.698c0-4.139 3.373-7.512 7.512-7.512h122.855c4.139 0 7.512 3.373 7.512 7.512 0 4.14-3.373 7.484-7.512 7.484h-115.371v215.634l51.959-63.554c3.033-3.714 8.731-3.629 11.679.085l41.075 50.287 38.806-47.48c2.608-3.203 7.342-3.656 10.545-1.049 3.203 2.637 3.657 7.342 1.049 10.545-27.325 33.449-54.595 66.785-81.921 100.234h191.511v-103.805l-53.32-65.255-34.781 42.52c-2.608 3.203-7.343 3.685-10.546 1.049-3.203-2.608-3.657-7.342-1.049-10.545l40.564-49.607c3.033-3.741 8.73-3.656 11.679.085l47.453 58.055v-137.199zm155.228 86.713h30.644v-119.056h-30.644c-4.139 0-7.512-3.345-7.512-7.483v-30.673h-119.028v30.672c0 4.139-3.373 7.483-7.513 7.483h-76.309c-4.139 0-7.483-3.345-7.483-7.483v-30.672h-119.057v30.672c0 4.139-3.345 7.483-7.483 7.483h-30.672v119.057h30.671c4.139 0 7.483 3.345 7.483 7.483v76.31c0 4.139-3.345 7.512-7.483 7.512h-30.671v119.028h30.671c4.139 0 7.483 3.373 7.483 7.512v30.643h119.057v-30.643c0-4.139 3.345-7.512 7.483-7.512h76.309c4.14 0 7.513 3.373 7.513 7.512v30.643h119.028v-30.643c0-4.139 3.373-7.512 7.512-7.512h30.644v-119.028h-30.644c-4.139 0-7.512-3.373-7.512-7.512v-76.31c.001-4.138 3.374-7.483 7.513-7.483zm45.639 0h30.671c4.139 0 7.483 3.345 7.483 7.483v76.31c0 4.139-3.345 7.512-7.483 7.512h-30.671v119.028h30.671c4.139 0 7.483 3.373 7.483 7.512v76.31c0 4.139-3.345 7.483-7.483 7.483h-76.31c-4.139 0-7.512-3.345-7.512-7.483v-30.671h-119.028v30.671c0 4.139-3.373 7.483-7.513 7.483h-76.309c-4.139 0-7.483-3.345-7.483-7.483v-30.671h-119.057v30.671c0 4.139-3.345 7.483-7.483 7.483h-76.31c-4.138 0-7.512-3.345-7.512-7.483v-76.31c0-4.139 3.374-7.512 7.512-7.512h30.642v-119.028h-30.642c-4.139 0-7.512-3.373-7.512-7.512v-76.31c0-4.139 3.374-7.483 7.512-7.483h30.642v-119.056h-30.642c-4.138 0-7.512-3.345-7.512-7.484v-76.309c0-4.139 3.374-7.513 7.512-7.513h76.31c4.139 0 7.483 3.374 7.483 7.513v30.643h119.057v-30.643c0-4.139 3.345-7.513 7.483-7.513h76.309c4.14 0 7.513 3.374 7.513 7.513v30.643h119.028v-30.643c0-4.139 3.373-7.513 7.512-7.513h76.31c4.138 0 7.483 3.374 7.483 7.513v76.31c0 4.139-3.345 7.483-7.483 7.483h-30.671zm23.159 14.995h-61.315v61.314h61.315zm0-210.361h-61.315v61.314h61.315zm-210.334 0h-61.314v61.314h61.314zm-210.361 0h-61.314v61.314h61.314zm0 210.361h-61.314v61.314h61.314zm0 210.333h-61.314v61.315h61.314zm420.695 0h-61.315v61.315h61.315zm-210.334 0h-61.314v61.315h61.314zm-63.525-286.983c15.308 0 29.169 6.208 39.204 16.243s16.214 23.896 16.214 39.176c0 15.307-6.179 29.168-16.214 39.203s-23.896 16.243-39.204 16.243c-15.307 0-29.169-6.208-39.204-16.243-10.006-10.035-16.214-23.896-16.214-39.203 0-15.279 6.208-29.141 16.214-39.176 10.035-10.035 23.897-16.243 39.204-16.243zm28.602 26.845c-7.313-7.314-17.434-11.849-28.602-11.849s-21.26 4.535-28.574 11.849c-7.313 7.313-11.849 17.434-11.849 28.574 0 11.168 4.535 21.288 11.849 28.601 7.314 7.314 17.405 11.849 28.574 11.849s21.289-4.535 28.602-11.849c7.313-7.313 11.82-17.434 11.82-28.601 0-11.141-4.507-21.261-11.82-28.574zm-33.052 162.371-37.305-45.61-57.742 70.669v25.37h53.831z"/>
    </g>
</svg>