<svg id="icons_16_info" data-name="icons / 16 / info" xmlns="http://www.w3.org/2000/svg" width="16.015" height="16.015" viewBox="0 0 16.015 16.015">
  <rect id="Rectangle_1670" data-name="Rectangle 1670" width="16" height="16" transform="translate(0.015 0.015)" fill="none"/>
  <g id="_64494" data-name="64494" transform="translate(0 0)">
    <g id="Group_5870" data-name="Group 5870" transform="translate(0 0)">
      <path id="Path_1982" data-name="Path 1982" d="M13.67,2.345a8.008,8.008,0,1,0,0,11.325A8.009,8.009,0,0,0,13.67,2.345ZM9.052,11.489a1.044,1.044,0,0,1-2.089,0V7.311a1.044,1.044,0,0,1,2.089,0ZM7.989,5.526A.931.931,0,0,1,7,4.574a.931.931,0,0,1,1-.965.96.96,0,1,1-.012,1.917Z" transform="translate(0 0)" fill="#fff"/>
    </g>
  </g>
</svg>
