<svg xmlns="http://www.w3.org/2000/svg" width="19.529" height="12.407" viewBox="0 0 19.529 12.407">
<!--    <defs>-->
<!--        <style>.a{opacity:0.9;}.b{fill:#fff;}</style>-->
<!--    </defs>-->
    <g transform="translate(0 0.001)">
        <g class="a" transform="translate(0 -0.001)" opacity="0.9">
            <path class="b" fill="#fff"
                d="M.8.641C2.6.232,7.161-.62,9.222.737a.309.309,0,0,1,.136.252c.04,1.1.012,7.4,0,10.4,0,.738-.489.842-1.191.615a11.306,11.306,0,0,0-6.828.338,1,1,0,0,1-1.329-.952C-.016,8.745.031,3.523.05,1.577A.966.966,0,0,1,.8.641Z"
                transform="translate(0 0.001)" />
        </g>
        <g class="a" transform="translate(10.15 -0.001)" opacity="0.9">
            <path class="b" fill="#fff"
                d="M18.639,1.577c.02,1.946.068,7.167.046,9.815a1,1,0,0,1-1.33.952,11.3,11.3,0,0,0-6.827-.338c-.7.227-1.188.123-1.193-.615-.015-3-.044-9.3,0-10.4A.309.309,0,0,1,9.468.737c2.061-1.357,6.626-.5,8.42-.1A.965.965,0,0,1,18.639,1.577Z"
                transform="translate(-9.311 0.001)" />
        </g>
    </g>
</svg>