<svg xmlns="http://www.w3.org/2000/svg" width="28.018" height="28.021" viewBox="0 0 28.018 28.021">
    <!--    <defs>-->
    <!--        <style>.a{fill:#2196f3;}.b{fill:#fafafa;}</style>-->
    <!--    </defs>-->
    <g transform="translate(-0.025 0)">
        <path class="a" fill="#2196f3"
            d="M14.034,0A13.742,13.742,0,0,0,.025,13.428a13.172,13.172,0,0,0,4.67,9.993v4.016a.584.584,0,0,0,.893.5L8.841,25.9a14.455,14.455,0,0,0,5.193.954A13.742,13.742,0,0,0,28.043,13.428,13.742,13.742,0,0,0,14.034,0Z"
            transform="translate(0 0)" />
        <path class="b" fill="#fafafa"
            d="M103.934,170.929a.584.584,0,0,0-.747-.163l-6.071,3.31-3.777-3.238a.584.584,0,0,0-.793.03l-7,7a.584.584,0,0,0,.692.925l6.071-3.31,3.78,3.24a.584.584,0,0,0,.793-.03l7-7A.584.584,0,0,0,103.934,170.929Z"
            transform="translate(-80.677 -161.353)" />
    </g>
</svg>