<svg xmlns="http://www.w3.org/2000/svg" width="34" height="34" viewBox="0 0 34 34">
<!--    <defs>-->
<!--        <style>-->
<!--            .a,.b,.c,.d{fill:none;}.a,.b,.c{stroke:#fff;stroke-width:1.25px;}.a,.b{stroke-miterlimit:10;}.b,.c{stroke-linecap:round;}.c{stroke-linejoin:round;}-->
<!--        </style>-->
<!--    </defs>-->
    <g transform="translate(-52 -848)">
        <g transform="translate(1134.065 300.73)">
            <g transform="translate(-1079.065 549.272)">
                <path class="a" fill="none" stroke="#fff" stroke-width="1.25px" stroke-miterlimit="10"
                    d="M-1064.468,576.346h-13.811a.812.812,0,0,1-.786-.836v-25.4a.812.812,0,0,1,.786-.836h13.624a1,1,0,0,1,.679.27l4.775,4.426a1.221,1.221,0,0,1,.383.894v9.145"
                    transform="translate(1079.065 -549.272)" />
                <path class="a" d="M-1053.188,572.264" transform="translate(1073.436 -554.273)" fill="none" stroke="#fff" stroke-width="1.25px" stroke-miterlimit="10"/>
                <path class="a" d="M-1054.69,554.849h-4.5a.905.905,0,0,1-.905-.905v-4.01" fill="none" stroke="#fff" stroke-width="1.25px" stroke-miterlimit="10"
                    transform="translate(1074.938 -549.416)" />
                <line class="b" x2="7.261" transform="translate(3.673 3.476)" fill="none" stroke="#fff" stroke-width="1.25px" stroke-miterlimit="10" stroke-linecap="round"/>
                <line class="b" x2="7.261" transform="translate(3.673 7.221)" fill="none" stroke="#fff" stroke-width="1.25px" stroke-miterlimit="10" stroke-linecap="round"/>
                <line class="b" x2="11.827" transform="translate(3.673 11.163)" fill="none" stroke="#fff" stroke-width="1.25px" stroke-miterlimit="10" stroke-linecap="round"/>
                <line class="b" x2="9.166" transform="translate(3.673 14.843)" fill="none" stroke="#fff" stroke-width="1.25px" stroke-miterlimit="10" stroke-linecap="round"/>
            </g>
            <circle class="b" cx="7.825" cy="7.825" r="7.825" fill="none" stroke="#fff" stroke-width="1.25px" stroke-miterlimit="10" stroke-linecap="round"
                transform="translate(-1066.226 563.623)" />
            <path class="c" d="M-1056.835,576.769l2.616,2.616,4.909-4.909" fill="none" stroke="#fff" stroke-width="1.25px" stroke-linecap="round" stroke-linejoin="round"
                transform="translate(-4.836 -5.483)" />
        </g>
        <rect class="d" width="34" height="34" transform="translate(52 848)"  fill="none"/>
    </g>
</svg>