<?xml version="1.0" encoding="iso-8859-1"?>
<!-- Generator: Adobe Illustrator 18.1.1, SVG Export Plug-In . SVG Version: 6.00 Build 0)  -->
<svg version="1.1" id="Capa_1" xmlns="http://www.w3.org/2000/svg" xmlns:xlink="http://www.w3.org/1999/xlink" x="0px"
     y="0px"
     viewBox="0 0 470.1 470.1" style="enable-background:new 0 0 470.1 470.1;" xml:space="preserve">
<g>
	<path style="fill:#010002;" d="M461.971,113.804h-58.249V50.125c0-4.487-3.633-8.129-8.129-8.129H8.129
		C3.642,41.996,0,45.638,0,50.125v298.042c0,4.495,3.642,8.129,8.129,8.129h58.249v63.679c0,4.495,3.642,8.129,8.129,8.129h387.465
		c4.495,0,8.129-3.633,8.129-8.129V121.933C470.1,117.438,466.458,113.804,461.971,113.804z M16.257,340.039V58.253h371.208v55.551
		H74.515c-4.487,0-8.129,3.642-8.129,8.129v218.106H16.257z M453.843,411.846H82.635v-63.679V130.061h312.95h58.249v281.785H453.843
		z"/>
</g>

</svg>
