<svg xmlns="http://www.w3.org/2000/svg" width="64" height="64" viewBox="0 0 64 64">
<!--    <defs>-->
<!--        <style>.a{fill:#ff6720;}.b{fill:none;}.c{fill:#fff;stroke:rgba(0,0,0,0);stroke-miterlimit:10;}</style>-->
<!--    </defs>-->
    <g transform="translate(-196 -377)">
        <circle class="a" cx="32" cy="32" r="32" transform="translate(196 377)" fill="#ff6720"/>
        <rect class="b" width="64" height="64" transform="translate(196 377)" fill="none"/>
        <path class="c" fill="#fff"
              d="M4203.327,23075h-23.593a2.732,2.732,0,0,1-2.733-2.723v-15.693a2.734,2.734,0,0,1,2.733-2.727H4182c0-.031,0-.064,0-.1s0-.072,0-.111v-2.16a9.393,9.393,0,0,1,2.793-6.707,9.544,9.544,0,0,1,16.277,6.707v2.369h2.264a2.734,2.734,0,0,1,2.733,2.727v15.693A2.732,2.732,0,0,1,4203.327,23075Zm-11.6-9.354v0l2.542,2.529a1.312,1.312,0,0,0,.927.383,1.292,1.292,0,0,0,.926-.383,1.278,1.278,0,0,0,.382-.914,1.294,1.294,0,0,0-.382-.928l-2.542-2.535,2.542-2.531a1.3,1.3,0,0,0-.924-2.223,1.311,1.311,0,0,0-.929.381l-2.542,2.531-2.548-2.531a1.3,1.3,0,0,0-.924-.381,1.309,1.309,0,0,0-.929.381,1.278,1.278,0,0,0-.382.914,1.294,1.294,0,0,0,.382.928l2.548,2.531-2.548,2.535a1.307,1.307,0,0,0,0,1.848,1.327,1.327,0,0,0,1.853,0l2.548-2.535Zm-.2-20.709a6.574,6.574,0,0,0-6.584,6.551v2.16c0,.074,0,.145.006.209h13.157c0-.031,0-.062,0-.1s0-.074,0-.113v-2.16A6.574,6.574,0,0,0,4191.53,23044.936Z"
              transform="translate(-3963.53 -22652)"/>
    </g>
</svg>