<svg xmlns="http://www.w3.org/2000/svg" width="20" height="18" viewBox="0 0 20 18">
<!--    <defs>-->
<!--        <style>.a{fill:#fff;fill-rule:evenodd;}</style>-->
<!--    </defs>-->
    <path class="a" fill="#fff" fill-rule="evenodd"
        d="M12.212,4.762A4.8,4.8,0,0,1,7.349,9.525,4.8,4.8,0,0,1,2.486,4.762,4.8,4.8,0,0,1,7.349,0,4.8,4.8,0,0,1,12.212,4.762ZM0,14.917c0-2.447,3.386-3.06,7.349-3.06,3.985,0,7.349.633,7.349,3.083S11.313,18,7.349,18C3.364,18,0,17.367,0,14.917ZM14.173,4.849a6.368,6.368,0,0,1-1.137,3.646.177.177,0,0,0,.122.275,3.968,3.968,0,0,0,.56.052,4.045,4.045,0,0,0,4.072-2.95A4.045,4.045,0,0,0,13.834.8a4.159,4.159,0,0,0-.818.081.148.148,0,0,0-.095.056.111.111,0,0,0,.019.124A6.414,6.414,0,0,1,14.173,4.849ZM17.317,10.7a3.19,3.19,0,0,1,2.462,1.467,2.107,2.107,0,0,1,0,1.878c-.531,1.123-2.246,1.484-2.912,1.577a.207.207,0,0,1-.234-.232c.34-3.112-2.367-4.588-3.068-4.927a.054.054,0,0,1-.033-.055.043.043,0,0,1,.037-.028A18.36,18.36,0,0,1,17.317,10.7Z" />
</svg>