<svg xmlns="http://www.w3.org/2000/svg" width="64" height="64" viewBox="0 0 64 64">
    <!--    <defs>-->
    <!--        <style>.a{fill:#ff6720;}.b{fill:none;}.c{fill:#fff;}</style>-->
    <!--    </defs>-->
    <g transform="translate(-196 -377)">
        <circle class="a" cx="32" cy="32" r="32" transform="translate(196 377)" fill="#ff6720"/>
        <rect class="b" width="64" height="64" transform="translate(196 377)" fill="none"/>
        <g transform="translate(992.293 603.982)">
            <path class="c" fill="#fff"
                  d="M-695.811-155.3a.718.718,0,0,1-.171-.051,1.75,1.75,0,0,1-.171-.087l-.357-.213v.7l.357-.208A1.24,1.24,0,0,1-695.811-155.3Z"
                  transform="translate(-59.445 -44.03)"/>
            <path class="c" fill="#fff"
                  d="M-689.333-154.764a1.029,1.029,0,0,1,.347.142l.069.041v-.361l-.069.04c-.059.032-.117.061-.173.085A.931.931,0,0,1-689.333-154.764Z"
                  transform="translate(-64.861 -44.562)"/>
            <path class="c" fill="#fff"
                  d="M-711.167-178.522h-10.245a2.945,2.945,0,0,0-2.945,2.945v5.795a2.945,2.945,0,0,0,2.625,2.927v2.579l3.248-2.561h7.318a2.946,2.946,0,0,0,2.945-2.945v-5.795A2.946,2.946,0,0,0-711.167-178.522Zm-9.182,6.108.649.387-.32.529-.649-.387a1.124,1.124,0,0,1-.284-.213,1.083,1.083,0,0,1,.053.342v.778h-.649v-.769a1.482,1.482,0,0,1,.011-.182.843.843,0,0,1,.038-.169.855.855,0,0,1-.129.113c-.047.034-.1.067-.151.1l-.649.378-.32-.529.649-.378a1.238,1.238,0,0,1,.342-.142.711.711,0,0,1-.171-.051,1.7,1.7,0,0,1-.171-.087l-.649-.387.32-.533.649.391a1.114,1.114,0,0,1,.285.214,1.086,1.086,0,0,1-.053-.343v-.778h.649v.769a1.49,1.49,0,0,1-.011.182.89.89,0,0,1-.038.169.848.848,0,0,1,.129-.114c.047-.034.1-.067.151-.1l.649-.382.32.533-.649.378c-.059.032-.117.061-.173.085a.936.936,0,0,1-.173.053A1.026,1.026,0,0,1-720.349-172.414Zm4.935,0,.649.387-.32.529-.649-.387a1.123,1.123,0,0,1-.284-.213,1.08,1.08,0,0,1,.053.342v.778h-.649v-.769a1.532,1.532,0,0,1,.011-.182.851.851,0,0,1,.038-.169.866.866,0,0,1-.129.113c-.047.034-.1.067-.151.1l-.649.378-.32-.529.649-.378a1.24,1.24,0,0,1,.342-.142.719.719,0,0,1-.171-.051,1.75,1.75,0,0,1-.171-.087l-.649-.387.32-.533.649.391a1.118,1.118,0,0,1,.285.214,1.079,1.079,0,0,1-.053-.343v-.778h.649v.769a1.49,1.49,0,0,1-.011.182.881.881,0,0,1-.038.169.862.862,0,0,1,.129-.114c.047-.034.1-.067.151-.1l.649-.382.32.533-.649.378q-.089.049-.173.085a.929.929,0,0,1-.173.053A1.027,1.027,0,0,1-715.414-172.414Zm4.935,0,.649.387-.32.529-.649-.387a1.124,1.124,0,0,1-.284-.213,1.083,1.083,0,0,1,.053.342v.778h-.649v-.769a1.532,1.532,0,0,1,.011-.182.843.843,0,0,1,.038-.169.86.86,0,0,1-.129.113c-.047.034-.1.067-.151.1l-.649.378-.32-.529.649-.378a1.237,1.237,0,0,1,.342-.142.713.713,0,0,1-.171-.051,1.725,1.725,0,0,1-.171-.087l-.649-.387.32-.533.649.391a1.123,1.123,0,0,1,.285.214,1.076,1.076,0,0,1-.054-.343v-.778h.649v.769a1.515,1.515,0,0,1-.011.182.909.909,0,0,1-.038.169.86.86,0,0,1,.129-.114c.047-.034.1-.067.151-.1l.649-.382.32.533-.649.378q-.089.049-.173.085a.93.93,0,0,1-.173.053A1.029,1.029,0,0,1-710.479-172.414Z"
                  transform="translate(-38.434 -26.77)"/>
            <path class="c" fill="#fff"
                  d="M-755.956-192.774v7.46h-17.16v-23.532h17.16v2.689h2.177v-4.706A3.138,3.138,0,0,0-756.916-214h-15.24a3.138,3.138,0,0,0-3.137,3.138v31.76a3.137,3.137,0,0,0,3.137,3.138h15.24a3.138,3.138,0,0,0,3.138-3.138v-13.671Zm-12.87-19.434h8.58v1.265h-8.58Zm4.29,33.184a1.753,1.753,0,0,1-1.753-1.753,1.753,1.753,0,0,1,1.753-1.753,1.753,1.753,0,0,1,1.753,1.753A1.753,1.753,0,0,1-764.536-179.023Z"
                  transform="translate(0)"/>
        </g>
    </g>
</svg>