<svg xmlns="http://www.w3.org/2000/svg" width="22.584" height="27.095" viewBox="0 0 22.584 27.095">
<!--    <defs>-->
<!--        <style>.a{fill:#fff;}</style>-->
<!--    </defs>-->
    <g transform="translate(-54.637 -16.448)">
        <g transform="translate(54.637 16.448)">
            <path class="a" fill="#fff"
                d="M54.711,31.015A11.086,11.086,0,0,1,65.585,18.652V17.337a.887.887,0,0,1,1.382-.736l4.114,2.847a.887.887,0,0,1,0,1.459l-4.108,2.841a.887.887,0,0,1-1.382-.736V21.7a8.027,8.027,0,0,0-7.261,4.919A7.928,7.928,0,0,0,59.459,34.7,1.531,1.531,0,1,1,57.053,36.6,10.933,10.933,0,0,1,54.711,31.015Zm17.7-5.723a7.928,7.928,0,0,1,1.129,8.083,8.017,8.017,0,0,1-7.261,4.919V36.985a.887.887,0,0,0-1.383-.735c-1.241.837-3.034,2.053-4.148,2.842a.887.887,0,0,0,0,1.447c1.113.791,2.9,2.011,4.142,2.852a.887.887,0,0,0,1.384-.734v-1.31A11.086,11.086,0,0,0,77.15,28.981,10.876,10.876,0,0,0,74.814,23.4a1.528,1.528,0,1,0-2.4,1.892Z"
                transform="translate(-54.637 -16.448)" />
        </g>
    </g>
</svg>