<svg id="icons_22_reload" data-name="icons / 22 / reload" xmlns="http://www.w3.org/2000/svg"
    width="22" height="22" viewBox="0 0 22 22">
<!--    <defs>-->
<!--        <style>-->
<!--            .cls-1 {-->
<!--            fill: none;-->
<!--            }-->

<!--            .cls-2 {-->
<!--            fill: #fff;-->
<!--            }-->
<!--        </style>-->
<!--    </defs>-->
    <rect id="Rectangle_1670" data-name="Rectangle 1670" class="cls-1" width="22" height="22" fill="none"/>
    <g id="refresh" transform="translate(2.373 2.356)">
        <path id="Path_380" data-name="Path 380" class="cls-2" fill="#fff"
            d="M2.071,9.417a6.822,6.822,0,0,1-.05-.8,6.574,6.574,0,0,1,11.03-4.86l-.583.593a.517.517,0,0,0-.131.505.529.529,0,0,0,.384.344c.1.02,3.443,1.1,3.23,1.054a.511.511,0,0,0,.6-.6c-.021-.1-.76-3.813-.717-3.6a.5.5,0,0,0-.849-.253l-.5.485A8.628,8.628,0,0,0,0,8.622v.02c0,.285.013.5.028.673a.505.505,0,0,0,.4.45l1.038.207a.506.506,0,0,0,.6-.556Zm0,0"
            transform="translate(0.001 0)" />
        <path id="Path_381" data-name="Path 381" class="cls-2" fill="#fff"
            d="M36.571,215.644l-1.041-.212a.506.506,0,0,0-.6.556,6.879,6.879,0,0,1,.052.8,6.566,6.566,0,0,1-11.03,4.85l.583-.583a.517.517,0,0,0,.131-.505.528.528,0,0,0-.384-.343c-.1-.021-3.443-1.1-3.23-1.054a.5.5,0,0,0-.455.141.5.5,0,0,0-.142.455l.718,3.567a.506.506,0,0,0,.353.384.485.485,0,0,0,.5-.131l.485-.485A8.609,8.609,0,0,0,37,216.788v-.03c0-.224-.008-.444-.027-.662a.505.505,0,0,0-.4-.452Zm0,0"
            transform="translate(-19.756 -208.166)" />
    </g>
</svg>
