<svg xmlns="http://www.w3.org/2000/svg" width="24" height="24" viewBox="0 0 24 24">
    <rect class="a" width="24" height="24" fill="none"/>
    <path class="b" fill="#929daa"
        d="M14.225,8.451a10,10,0,1,0,10,10A10,10,0,0,0,14.225,8.451Zm5.257,8.935-2.155,2.1.51,2.967a.652.652,0,0,1-.946.687l-2.665-1.4-2.665,1.4a.652.652,0,0,1-.946-.687l.51-2.967-2.155-2.1a.653.653,0,0,1,.361-1.113l2.979-.434,1.331-2.7a.654.654,0,0,1,1.171,0l1.331,2.7,2.979.434A.653.653,0,0,1,19.482,17.386Z"
        transform="translate(-2.226 -6.451)" />
</svg>