<svg xmlns="http://www.w3.org/2000/svg" width="16.705" height="16.705" viewBox="0 0 16.705 16.705">
<!--    <defs>-->
<!--        <style>.a{opacity:0.9;}.b{fill:#fff;}</style>-->
<!--    </defs>-->
    <g class="a" transform="translate(0)" opacity="0.9">
        <g transform="translate(1.796 1.797)">
            <path class="b" fill="#fff"
                d="M14.668,6.335,10.776,2.443a1.654,1.654,0,0,0-2.334.081L3.731,7.236,3.4,7.565l-.878.878a1.653,1.653,0,0,0-.081,2.334l3.892,3.892a1.653,1.653,0,0,0,2.334-.081l.878-.878.329-.329,4.712-4.712a1.654,1.654,0,0,0,.081-2.334Z"
                transform="translate(-1.999 -2)" />
        </g>
        <g transform="translate(9.049 9.049)">
            <path class="b" fill="#fff"
                d="M20.079,13h0a.582.582,0,0,0-.582.578A5.988,5.988,0,0,1,16.3,18.8l-.614-.751a.582.582,0,0,0-.862-.043l-1.657,1.657a.582.582,0,0,0,.411.993h0a7.158,7.158,0,0,0,7.07-7.07A.583.583,0,0,0,20.079,13Z"
                transform="translate(-13 -13)" />
        </g>
        <g transform="translate(0 0)">
            <path class="b" fill="#fff"
                d="M7.075,0h0A7.158,7.158,0,0,0,0,7.07a.583.583,0,0,0,.578.587h0a.582.582,0,0,0,.582-.578A5.988,5.988,0,0,1,4.353,1.856l.614.751a.582.582,0,0,0,.862.043L7.486.993A.582.582,0,0,0,7.075,0Z"
                transform="translate(0 0)" />
        </g>
    </g>
</svg>