<svg id="Icon_24_send_mess" data-name="Icon/24/send mess" xmlns="http://www.w3.org/2000/svg" width="24" height="24" viewBox="0 0 24 24">
  <path id="Icon_ionic-ios-send" data-name="Icon ionic-ios-send" d="M21.945,4.543,4.726,12.048a.4.4,0,0,0,.014.718L9.4,15.4a.751.751,0,0,0,.858-.084L19.441,7.4c.061-.052.206-.15.263-.094s-.033.2-.084.263l-7.946,8.95a.749.749,0,0,0-.075.9l3.044,4.883a.4.4,0,0,0,.713-.009l7.12-17.219A.4.4,0,0,0,21.945,4.543Z" transform="translate(-1.502 -1.503)" fill="#ff6720"/>
  <rect id="Rectangle_2410" data-name="Rectangle 2410" width="24" height="24" fill="none"/>
</svg>
