<svg xmlns="http://www.w3.org/2000/svg" width="20" height="20" viewBox="0 0 20 20">
    <g transform="translate(0.106)">
        <g transform="translate(-0.106)">
            <path class="a" fill="#2c333a"
                  d="M20,11.331V8.669a.391.391,0,0,0-.315-.383l-2.4-.472a7.529,7.529,0,0,0-.59-1.42l1.335-2a.391.391,0,0,0-.049-.493L16.1,2.015a.391.391,0,0,0-.493-.049l-2,1.335a7.528,7.528,0,0,0-1.42-.59l-.472-2.4A.391.391,0,0,0,11.331,0H8.669a.391.391,0,0,0-.383.315l-.472,2.4a7.53,7.53,0,0,0-1.42.59l-2-1.335a.391.391,0,0,0-.493.049L2.015,3.9a.391.391,0,0,0-.049.493l1.335,2a7.528,7.528,0,0,0-.59,1.42l-2.4.472A.391.391,0,0,0,0,8.669v2.663a.391.391,0,0,0,.315.383l2.4.472a7.53,7.53,0,0,0,.59,1.42l-1.335,2a.391.391,0,0,0,.049.493L3.9,17.985a.391.391,0,0,0,.493.049l2-1.335a7.528,7.528,0,0,0,1.42.59l.472,2.4A.391.391,0,0,0,8.669,20h2.663a.391.391,0,0,0,.383-.315l.472-2.4a7.53,7.53,0,0,0,1.42-.59l2,1.335a.391.391,0,0,0,.493-.049L17.985,16.1a.391.391,0,0,0,.049-.493l-1.335-2a7.528,7.528,0,0,0,.59-1.42l2.4-.472A.391.391,0,0,0,20,11.331ZM10.136,14.1A4.1,4.1,0,1,1,14.1,10.136,4.106,4.106,0,0,1,10.136,14.1Z"/>
        </g>
    </g>
</svg>