<svg xmlns="http://www.w3.org/2000/svg" width="16" height="16" viewBox="0 0 16 16">
    <rect class="a" width="16" height="16" fill="none"/>
    <path class="b" fill="#2c333a"
          d="M-2472.909,19.425c-1.4,0-2.8.005-4.192,0a1.373,1.373,0,0,1-1.375-1.1,3.489,3.489,0,0,1-.108-.718c-.045-.54-.077-1.081-.113-1.622q-.074-1.075-.147-2.149c-.028-.4-.054-.808-.085-1.212-.043-.547-.093-1.093-.136-1.64-.028-.361-.054-.723-.069-1.085a.568.568,0,0,1,.2-.471.66.66,0,0,1,.455-.136h2.7c.139,0,.161-.019.163-.158a5.5,5.5,0,0,1,.235-1.41,4.035,4.035,0,0,1,.646-1.356,2.266,2.266,0,0,1,1.067-.81,2.263,2.263,0,0,1,1.349-.052,1.962,1.962,0,0,1,.777.412,3.8,3.8,0,0,1,1.16,2,4.895,4.895,0,0,1,.193,1.267c0,.084.052.1.127.1.289,0,.578,0,.868,0,.646,0,1.292.016,1.937,0a.6.6,0,0,1,.6.6c-.016.288-.035.575-.053.863-.023.348-.045.7-.072,1.044-.032.414-.069.827-.1,1.241-.008.1,0,.2-.009.307-.045.6-.094,1.206-.14,1.809-.024.323-.043.646-.066.969-.027.382-.054.765-.084,1.147a6.908,6.908,0,0,1-.073.777,1.737,1.737,0,0,1-.6,1.086,1.327,1.327,0,0,1-.84.3Q-2470.8,19.428-2472.909,19.425Zm0-10.134H-2471c.055,0,.1,0,.089-.078a5.515,5.515,0,0,0-.516-2.01,2.185,2.185,0,0,0-.593-.749,1.363,1.363,0,0,0-1.008-.288,1.566,1.566,0,0,0-1.111.627,3.048,3.048,0,0,0-.5,1,4.98,4.98,0,0,0-.235,1.336c-.006.166-.007.166.166.166Zm.16,8.179.294-.023a2,2,0,0,0,1.274-.533,1.435,1.435,0,0,0,.434-1.338,1.7,1.7,0,0,0-.741-1.078,4.125,4.125,0,0,0-1.249-.6,3.644,3.644,0,0,1-1.142-.579.837.837,0,0,1-.31-.927,1.353,1.353,0,0,1,1.12-.874,2.176,2.176,0,0,1,1.363.274c.1.05.184.116.281.165a.18.18,0,0,0,.248-.091.2.2,0,0,0-.033-.283,2.642,2.642,0,0,0-1.991-.5,1.721,1.721,0,0,0-1.121.613,1.341,1.341,0,0,0,.071,1.9,3.315,3.315,0,0,0,1.169.673,5.656,5.656,0,0,1,1.386.661,1.061,1.061,0,0,1-.042,1.843,2.031,2.031,0,0,1-1.3.23,3.225,3.225,0,0,1-1.365-.525,1.414,1.414,0,0,0-.2-.132.239.239,0,0,0-.168,0,.217.217,0,0,0-.04.405A3.434,3.434,0,0,0-2472.748,17.47Z"
          transform="translate(2481.135 -4.427)"/>
</svg>