<svg id="Icon_24_Cart" data-name="Icon/24/Cart" xmlns="http://www.w3.org/2000/svg" width="24" height="24" viewBox="0 0 24 24">
  <rect id="Rectangle_1670" data-name="Rectangle 1670" width="24" height="24" fill="none"/>
  <g id="Group_4854" data-name="Group 4854" transform="translate(2 3)">
    <path id="Path_1785" data-name="Path 1785" d="M8.611,15.692a1.91,1.91,0,0,0-2.053,1.733,1.888,1.888,0,1,0,2.053-1.733Z" transform="translate(-0.296 -0.705)" fill="#fefefe"/>
    <path id="Path_1786" data-name="Path 1786" d="M16.451,15.7c-.053,0-.107-.006-.16,0a1.867,1.867,0,1,0,.16,0Z" transform="translate(-0.649 -0.705)" fill="#fefefe"/>
    <path id="Path_1787" data-name="Path 1787" d="M7.015,11.233l.051-.008v0c.121-.018.234-.045.349-.052.516-.03,1.031-.053,1.546-.079l1.528-.078,1.566-.078,1.566-.078,1.546-.078c.516-.026,1.031-.055,1.546-.077.434-.018.867-.017,1.3-.044.267-.016.547-.054.681-.337a1.4,1.4,0,0,0,.1-.333c.007-.036.012-.073.019-.108.035-.183.069-.367.1-.55q.163-.878.326-1.754c.1-.494.191-.987.28-1.48l.028-.151c.1-.535.182-1.072.28-1.606.057-.316.129-.629.191-.944v-.5a.746.746,0,0,0-.755-.4Q12.116,2.507,4.97,2.5H4.725V2.489h0C4.56,1.86,4.4,1.239,4.239.617A.908.908,0,0,0,3.773,0H.414A.788.788,0,0,1,.341.053a.668.668,0,0,0-.3.8.585.585,0,0,0,.573.4H3.053c.077.293.152.573.227.86L4.2,5.547q.344,1.289.687,2.579c.265.988.533,1.974.8,2.961.2.742.391,1.486.589,2.228a.585.585,0,0,0,.553.428H16.959a.482.482,0,0,0,.169-.022.636.636,0,0,0,.388-.773.619.619,0,0,0-.606-.46c-3.091.01-6.182.006-9.273.006a.606.606,0,0,1-.156,0c-.042-.012-.1-.045-.112-.08-.107-.393-.205-.79-.307-1.186l-.051.008M8.771,8.106a.624.624,0,0,1-.461.619H8.3l-.033.008a.643.643,0,0,1-.154.016A.621.621,0,0,1,7.5,8.126V5.641a.62.62,0,0,1,.591-.648h.044a.642.642,0,0,1,.637.637Zm3.749.017a.633.633,0,0,1-1.265.02c0-.015,0-.03,0-.045V5.638a.618.618,0,0,1,.593-.644h.027a.636.636,0,0,1,.645.627v0q0,1.249,0,2.5Zm3.75-.014a.642.642,0,0,1-.183.457.629.629,0,0,1-1.074-.455V5.627a.619.619,0,0,1,.6-.638h.029a.608.608,0,0,1,.558.344v.009l.016.035a.7.7,0,0,1,.053.269V6.876c0,.41.006.823,0,1.233Z" transform="translate(-0.002)" fill="#fefefe"/>
  </g>
</svg>
