<svg xmlns="http://www.w3.org/2000/svg" width="24" height="24" viewBox="0 0 24 24">
    <rect class="a" width="24" height="24" fill="none"/>
    <path class="b" fill="#2c333a"
          d="M19.55,3.851,17.443.487A1.039,1.039,0,0,0,16.563,0H3.444a1.039,1.039,0,0,0-.88.487L.457,3.851A2.9,2.9,0,0,0,2.366,8.28a3.375,3.375,0,0,0,.445.029,3.206,3.206,0,0,0,2.4-1.075,3.209,3.209,0,0,0,4.793,0,3.209,3.209,0,0,0,4.793,0,3.217,3.217,0,0,0,2.4,1.075,3.338,3.338,0,0,0,.445-.029A2.894,2.894,0,0,0,19.55,3.851ZM17.2,9.352a4.12,4.12,0,0,1-.958-.123v3.241H3.769V9.228a4.3,4.3,0,0,1-.958.123,4.381,4.381,0,0,1-.584-.039A4.084,4.084,0,0,1,1.694,9.2v6.39a1.038,1.038,0,0,0,1.039,1.039H17.28a1.038,1.038,0,0,0,1.039-1.039V9.2a3.315,3.315,0,0,1-.533.117A4.516,4.516,0,0,1,17.2,9.352Z"
          transform="translate(1.996 4)"/>
</svg>