<svg xmlns="http://www.w3.org/2000/svg" width="16" height="16" viewBox="0 0 16 16">
    <g transform="translate(-2584 -546)">
        <path class="a" fill="#2c333a"
              d="M7.69.465,5.982,3.93l-3.823.557A.838.838,0,0,0,1.7,5.916l2.766,2.7-.654,3.807a.837.837,0,0,0,1.214.882l3.42-1.8,3.42,1.8a.838.838,0,0,0,1.214-.882l-.654-3.807,2.766-2.7a.838.838,0,0,0-.463-1.429L10.9,3.93,9.192.465a.838.838,0,0,0-1.5,0Z"
              transform="translate(2583.559 547.301)"/>
        <rect class="b" width="16" height="16" transform="translate(2584 546)" fill="none"/>
    </g>
</svg>