<svg id="Capa_1" enable-background="new 0 0 512 512" height="512" viewBox="0 0 512 512" width="512"
     xmlns="http://www.w3.org/2000/svg">
    <g>
        <path d="m189.814 322.186-10.606-10.607-42.427 42.427 10.607 10.606 10.606 10.607 42.427-42.427z"
              fill="#f0dbd8"/>
        <path d="m143.904 341.202h60v15h-60z" fill="#d9c3c3" transform="matrix(.707 -.707 .707 .707 -195.635 225.101)"/>
        <circle cx="317.093" cy="194.907" fill="#80664d" r="195"/>
        <path d="m454.979 332.792c76.028-76.028 76.028-199.744 0-275.772l-275.771 275.772c76.027 76.028 199.743 76.028 275.771 0z"
              fill="#594135"/>
        <circle cx="317.093" cy="194.907" fill="#ffea80" r="165"/>
        <path d="m433.766 311.579c64.334-64.334 64.334-169.012 0-233.345l-233.345 233.345c64.333 64.334 169.011 64.334 233.345 0z"
              fill="#fc6"/>
        <path d="m448.27 184.902c-2.373-2.651-59.033-64.995-131.177-64.995s-128.803 62.343-131.176 64.995l-8.965 10.005 8.965 10.005c2.373 2.651 59.033 64.995 131.177 64.995s128.804-62.344 131.177-64.995l8.965-10.005z"
              fill="#f9f5f3"/>
        <path d="m256.182 255.818c18.1 8.214 38.775 14.088 60.912 14.088 72.144 0 128.804-62.344 131.177-64.995l8.965-10.005-8.965-10.005c-1.645-1.838-29.377-32.351-70.265-50.907z"
              fill="#f0dbd8"/>
        <path d="m157.994 354.006-21.213-21.214-136.781 136.782 21.213 21.213 21.213 21.213 136.782-136.781z"
              fill="#f25555"/>
        <path d="m3.492 418.003h193.438v30h-193.438z" fill="#d93752"
              transform="matrix(.707 -.707 .707 .707 -276.828 197.683)"/>
        <circle cx="317.093" cy="194.907" fill="#57d9ad" r="45"/>
        <path d="m285.273 226.727c17.547 17.546 46.093 17.546 63.64 0 17.546-17.547 17.546-46.093 0-63.64z"
              fill="#26bfa6"/>
        <circle cx="317.093" cy="194.907" fill="#80664d" r="15"/>
        <path d="m317.093 209.907c8.276 0 15-6.724 15-15 0-4.138-1.681-7.888-4.396-10.604l-21.207 21.207c2.715 2.716 6.465 4.397 10.603 4.397z"
              fill="#594135"/>
    </g>
</svg>