<svg xmlns="http://www.w3.org/2000/svg" width="34" height="34" viewBox="0 0 34 34">
<!--    <defs>-->
<!--        <style>-->
<!--            .a,.b,.c,.d,.e{fill:none;}.a,.b,.c,.d{stroke:#949da9;stroke-width:1.25px;}.a,.d{stroke-linecap:round;}.a,.b{stroke-linejoin:round;}.c,.d{stroke-miterlimit:10;}-->
<!--        </style>-->
<!--    </defs>-->
    <g transform="translate(-57 -990)">
        <g transform="translate(1088.67 359.082)">
            <g transform="translate(-1030.67 637.201)">
                <path class="a" d="M-1027.238,639.378l.384-2.177h20.4l-.706,4.006" fill="none"
                    stroke="#949da9" stroke-width="1.25px" stroke-linecap="round" stroke-linejoin="round"
                    transform="translate(1029.905 -637.201)" />
                <path class="b" fill="none" stroke="#949da9" stroke-width="1.25px"
                    d="M-1004.542,655.217h4.011l2.021-7.408-1.748-6.606h-7.35l-1.727,9.8h-20.4l-.744,4.217h2.93"
                    transform="translate(1030.483 -637.914)" />
                <line class="b" x2="9.534" transform="translate(9.693 17.303)" fill="none" stroke-linejoin="round"
                    stroke="#949da9" stroke-width="1.25px" />
                <path class="a" d="M-1009.174,652.46h-20.4l.541-3.067" fill="none" stroke="#949da9" stroke-linecap="round" stroke-linejoin="round"
                    stroke-width="1.25px" transform="translate(1030.322 -639.374)" />
            </g>
            <path class="c" fill="none" stroke="#949da9" stroke-width="1.25px" stroke-miterlimit="10"
                d="M-1020.422,658.569a4.092,4.092,0,0,1-3.867,3.287,2.682,2.682,0,0,1-2.707-3.287,4.091,4.091,0,0,1,3.867-3.287A2.683,2.683,0,0,1-1020.422,658.569Z"
                transform="translate(-0.799 -3.222)" />
            <path class="c" fill="none" stroke="#949da9" stroke-miterlimit="10"
                d="M-1000.593,658.45a4.092,4.092,0,0,1-3.867,3.287,2.682,2.682,0,0,1-2.707-3.287,4.091,4.091,0,0,1,3.867-3.287A2.683,2.683,0,0,1-1000.593,658.45Z"
                transform="translate(-4.333 -3.201)" />
            <line class="d" x2="7.557" transform="translate(-1029.532 641.207)" fill="none" stroke-linecap="round" stroke-miterlimit="10"
                stroke="#949da9" stroke-width="1.25px" />
            <line class="d" x2="7.557" transform="translate(-1027.287 643.361)" fill="none" stroke-linecap="round" stroke-miterlimit="10"
                stroke="#949da9" stroke-width="1.25px" />
            <line class="d" x2="7.557" transform="translate(-1030.573 645.611)" fill="none" stroke-linecap="round" stroke-miterlimit="10"
                stroke="#949da9" stroke-width="1.25px" />
            <path class="a" d="M-995.217,648.124h-6.176l.663-4.792h4.591" fill="none" stroke-linecap="round" stroke-linejoin="round"
                stroke="#949da9" stroke-width="1.25px" transform="translate(-3.673 -1.093)" />
        </g>
        <rect class="e" width="34" height="34" transform="translate(57 990)" fill="none" />
    </g>
</svg>