<svg xmlns="http://www.w3.org/2000/svg" width="16" height="16" viewBox="0 0 16 16">
    <rect class="a" width="16" height="16" fill="none"/>
    <rect class="a" width="16" height="16" fill="none"/>
    <g transform="translate(1.899 1.336)">
        <path class="b"
              d="M90.474,6.885a3.331,3.331,0,0,0,2.434-1.008,3.331,3.331,0,0,0,1.008-2.434,3.331,3.331,0,0,0-1.008-2.434,3.442,3.442,0,0,0-4.868,0,3.331,3.331,0,0,0-1.008,2.434A3.331,3.331,0,0,0,88.04,5.876,3.331,3.331,0,0,0,90.474,6.885Zm0,0"
              transform="translate(-84.602 0)" fill="#2c333a"/>
        <path class="b"
              d="M11.895,251.4a8.5,8.5,0,0,0-.116-.9,7.113,7.113,0,0,0-.222-.908,4.484,4.484,0,0,0-.373-.847,3.193,3.193,0,0,0-.563-.733,2.482,2.482,0,0,0-.809-.508,2.8,2.8,0,0,0-1.032-.187,1.048,1.048,0,0,0-.559.237c-.168.109-.364.236-.583.376a3.342,3.342,0,0,1-.754.332,2.929,2.929,0,0,1-1.845,0,3.333,3.333,0,0,1-.754-.332c-.217-.139-.413-.265-.583-.376a1.047,1.047,0,0,0-.559-.237,2.791,2.791,0,0,0-1.032.187,2.478,2.478,0,0,0-.809.508,3.2,3.2,0,0,0-.563.733,4.492,4.492,0,0,0-.373.847,7.132,7.132,0,0,0-.222.908,8.472,8.472,0,0,0-.116.9c-.019.273-.029.557-.029.844a2.373,2.373,0,0,0,.7,1.8,2.537,2.537,0,0,0,1.816.663H9.4a2.536,2.536,0,0,0,1.816-.663,2.372,2.372,0,0,0,.7-1.8c0-.288-.01-.572-.029-.844Zm0,0"
              transform="translate(0 -240.413)" fill="#2c333a"/>
    </g>
</svg>