<svg xmlns="http://www.w3.org/2000/svg" width="109.415" height="116.069" viewBox="0 0 109.415 116.069">
  <g id="Group_9297" data-name="Group 9297" transform="translate(-260.96 -320.907)">
    <g id="Group_9294" data-name="Group 9294" transform="translate(575.576 932.936)">
      <g id="Ellipse_769" data-name="Ellipse 769" transform="translate(-314.616 -612.028)" fill="#fff" stroke="#ffb08b" stroke-miterlimit="10" stroke-width="2">
        <circle cx="53.535" cy="53.535" r="53.535" stroke="none"/>
        <circle cx="53.535" cy="53.535" r="52.535" fill="none"/>
      </g>
      <g id="Path_3695" data-name="Path 3695" transform="translate(0 0)" fill="#ffe9df" stroke-miterlimit="10">
        <path d="M -221.0525512695313 -524.4722900390625 C -228.7716217041016 -542.4786376953125 -244.4163665771484 -554.023681640625 -261.2978210449219 -554.023681640625 C -278.3052673339844 -554.023681640625 -293.5409240722656 -542.8782348632813 -301.3911437988281 -524.8181762695313 C -305.0813293457031 -529.2269287109375 -307.999267578125 -534.161376953125 -310.0752258300781 -539.5076904296875 C -312.4247131347656 -545.5584106445313 -313.6159973144531 -551.9462890625 -313.6159973144531 -558.4937744140625 C -313.6159973144531 -565.5863647460938 -312.2271118164063 -572.4662475585938 -309.4879150390625 -578.9422607421875 C -306.8419494628906 -585.1979370117188 -303.0538330078125 -590.8162231445313 -298.228759765625 -595.6412353515625 C -293.4036865234375 -600.4661865234375 -287.7852478027344 -604.2542114257813 -281.529541015625 -606.9000854492188 C -275.0534057617188 -609.6392211914063 -268.1734924316406 -611.028076171875 -261.0809020996094 -611.028076171875 C -253.9883270263672 -611.028076171875 -247.1084747314453 -609.6392211914063 -240.6324157714844 -606.9000854492188 C -234.3767852783203 -604.2542114257813 -228.7584533691406 -600.4661865234375 -223.9335021972656 -595.6412353515625 C -219.1085510253906 -590.8162841796875 -215.3204956054688 -585.1979370117188 -212.6746215820313 -578.9423217773438 C -209.9354858398438 -572.4662475585938 -208.5466461181641 -565.5863647460938 -208.5466461181641 -558.4937744140625 C -208.5466461181641 -551.8673706054688 -209.7643737792969 -545.4082641601563 -212.1660003662109 -539.2958374023438 C -214.2917175292969 -533.8856811523438 -217.2776947021484 -528.9061279296875 -221.0525512695313 -524.4722900390625 Z" stroke="none"/>
        <path d="M -220.7957000732422 -526.3544311523438 C -217.5705413818359 -530.3871459960938 -214.9869232177734 -534.8507690429688 -213.0967254638672 -539.6614990234375 C -210.7410583496094 -545.656982421875 -209.546630859375 -551.9930419921875 -209.546630859375 -558.4937744140625 C -209.546630859375 -565.4517822265625 -210.9089050292969 -572.2006225585938 -213.5955963134766 -578.552734375 C -216.1910705566406 -584.689208984375 -219.9071502685547 -590.20068359375 -224.6405944824219 -594.93408203125 C -229.3740539550781 -599.6675415039063 -234.8855285644531 -603.3836059570313 -241.02197265625 -605.9791259765625 C -247.3740997314453 -608.665771484375 -254.1228942871094 -610.028076171875 -261.0809020996094 -610.028076171875 C -268.0389404296875 -610.028076171875 -274.7878112792969 -608.665771484375 -281.1400146484375 -605.9791259765625 C -287.2765197753906 -603.3836059570313 -292.7881164550781 -599.6675415039063 -297.5216674804688 -594.93408203125 C -302.2552185058594 -590.2006225585938 -305.9713745117188 -584.6891479492188 -308.5669250488281 -578.552734375 C -311.2536926269531 -572.2006225585938 -312.6159973144531 -565.4517822265625 -312.6159973144531 -558.4937744140625 C -312.6159973144531 -552.070556640625 -311.4475402832031 -545.8045043945313 -309.1430358886719 -539.86962890625 C -307.3003234863281 -535.1240234375 -304.7814636230469 -530.7094116210938 -301.6365051269531 -526.7078857421875 C -293.446044921875 -544.259765625 -278.2375793457031 -555.023681640625 -261.2978210449219 -555.023681640625 C -244.4841003417969 -555.023681640625 -228.8840789794922 -543.8759765625 -220.7957000732422 -526.3544311523438 M -221.3630065917969 -522.6024780273438 C -228.4964599609375 -540.5972290039063 -243.6962585449219 -553.023681640625 -261.2978210449219 -553.023681640625 C -278.7877197265625 -553.023681640625 -293.9046020507813 -540.7518310546875 -301.0931091308594 -522.942138671875 C -309.500732421875 -532.3975830078125 -314.6159973144531 -544.8456420898438 -314.6159973144531 -558.4937744140625 C -314.6159973144531 -588.0601806640625 -290.6473083496094 -612.028076171875 -261.0809020996094 -612.028076171875 C -231.5145416259766 -612.028076171875 -207.546630859375 -588.0601806640625 -207.546630859375 -558.4937744140625 C -207.546630859375 -544.683837890625 -212.7775268554688 -532.0977783203125 -221.3630065917969 -522.6024780273438 Z" stroke="none" fill="#ffb08b"/>
      </g>
      <g id="Ellipse_770" data-name="Ellipse 770" transform="translate(-283.964 -590.211)" fill="#fff" stroke="#ffb08b" stroke-miterlimit="10" stroke-width="2">
        <circle cx="22.666" cy="22.666" r="22.666" stroke="none"/>
        <circle cx="22.666" cy="22.666" r="21.666" fill="none"/>
      </g>
    </g>
    <g id="Group_9274" data-name="Group 9274" transform="translate(232.399 179)">
      <circle id="Ellipse_767" data-name="Ellipse 767" cx="23.488" cy="23.488" r="23.488" transform="translate(91 211)" fill="#eb3b5b"/>
      <g id="Group_9296" data-name="Group 9296" transform="translate(-128.399 -28)">
        <g id="Group_9295" data-name="Group 9295" transform="translate(986.381 1597.563)">
          <path id="Path_3696" data-name="Path 3696" d="M-752.351-1121.32a5.615,5.615,0,0,1,1.64-3.98c.677-.694,1.368-1.375,2.057-2.057a1.026,1.026,0,0,1,1.146-.259,1.016,1.016,0,0,1,.693.916,1.028,1.028,0,0,1-.318.851c-.671.672-1.351,1.334-2.011,2.016a3.411,3.411,0,0,0-.885,3.6,3.407,3.407,0,0,0,2.835,2.453,3.4,3.4,0,0,0,3.1-1q2.151-2.127,4.281-4.275a3.547,3.547,0,0,0-.544-5.505,1.088,1.088,0,0,1-.053-1.841,1.019,1.019,0,0,1,1.174.006,5.422,5.422,0,0,1,2.311,2.945,5.534,5.534,0,0,1-1.344,5.873c-1.444,1.5-2.932,2.96-4.421,4.418a5.408,5.408,0,0,1-3.452,1.552,5.71,5.71,0,0,1-5.827-3.64A5.485,5.485,0,0,1-752.351-1121.32Z" transform="translate(0 -205.396)" fill="#fff"/>
          <path id="Path_3697" data-name="Path 3697" d="M-491.631-1336.219l-1.966-.914c.224-.352.418-.7.655-1.02a5.487,5.487,0,0,1,2.57-1.908c1.969-.72,3.935-1.452,5.916-2.139a5.7,5.7,0,0,1,7.17,3.513,5.68,5.68,0,0,1-2.384,6.772,7.968,7.968,0,0,1-1.323.611c-.8.311-1.615.6-2.427.885a1.063,1.063,0,0,1-1.442-1.073,1.03,1.03,0,0,1,.737-.948c.886-.324,1.778-.632,2.658-.971a3.476,3.476,0,0,0,2.348-3.026,3.572,3.572,0,0,0-2.89-3.846,3.516,3.516,0,0,0-1.849.142q-2.879,1.038-5.755,2.087a3.488,3.488,0,0,0-1.963,1.748C-491.591-1336.282-491.608-1336.257-491.631-1336.219Z" transform="translate(-250.788)" fill="#fff"/>
        </g>
        <rect id="Rectangle_2448" data-name="Rectangle 2448" width="7" height="2.2" rx="1.1" transform="matrix(0.788, 0.616, -0.616, 0.788, 233.045, 254.082)" fill="#fff"/>
        <rect id="Rectangle_2449" data-name="Rectangle 2449" width="7" height="2.2" rx="1.1" transform="translate(228.743 260.125) rotate(14)" fill="#fff"/>
        <rect id="Rectangle_2450" data-name="Rectangle 2450" width="7" height="2.2" rx="1.1" transform="matrix(0.438, 0.899, -0.899, 0.438, 238.833, 249.99)" fill="#fff"/>
      </g>
    </g>
  </g>
</svg>
