<svg xmlns="http://www.w3.org/2000/svg" width="25.894" height="16.56" viewBox="0 0 25.894 16.56">
<!--    <defs>-->
<!--        <style>.a{fill:#fff;}</style>-->
<!--    </defs>-->
    <path class="a" fill="#fff"
        d="M77.672,277.977v1.739a.762.762,0,0,0,.763.763H94.947a.762.762,0,0,0,.763-.763v-1.739Zm0,0"
        transform="translate(-73.744 -263.918)" />
    <path class="a"  fill="#fff"
        d="M25.894,4.365a2.464,2.464,0,1,0-4.255,1.689,4.038,4.038,0,0,1-6.962-1.837,2.464,2.464,0,1,0-3.459,0A4.038,4.038,0,0,1,4.255,6.054a2.462,2.462,0,1,0-2.319.718,20.045,20.045,0,0,0,1.457,5.762H22.5a20.045,20.045,0,0,0,1.457-5.762A2.468,2.468,0,0,0,25.894,4.365Zm0,0" />
</svg>